<svg xmlns="http://www.w3.org/2000/svg" fill="none" viewBox="0.25 0.25 38.25 17.75">
  <path d="M19.5 18L38.5 12.25V15C38.5 16.6569 37.1569 18 35.5 18H19.5Z" fill="#FD6020"></path>
  <path fill-rule="evenodd" clip-rule="evenodd" d="M33.2421 0.38862C34.5487 0.38862 35.2673 0.993049 35.2673 2.13475C35.3327 3.00781 34.7447 3.74655 33.9607 3.88087L35.7246 6.36574H34.3527L32.8501 3.94803H32.7194V6.36574H31.6088V0.38862H33.2421ZM32.7195 3.14209H33.0461C33.7647 3.14209 34.0914 2.8063 34.0914 2.20187C34.0914 1.6646 33.7647 1.32881 33.0461 1.32881H32.7195V3.14209ZM27.7544 6.36574H30.8903V5.35836H28.865V3.74656H30.8249V2.73917H28.865V1.396H30.8903V0.38862H27.7544V6.36574ZM24.4877 4.41814L22.9851 0.38862H21.8092L24.2264 6.50006H24.8144L27.2316 0.38862H26.0557L24.4877 4.41814ZM11.2255 3.41063C11.2255 5.0896 12.5321 6.49993 14.1654 6.49993C14.688 6.49993 15.1454 6.36562 15.6027 6.16414V4.82097C15.276 5.22392 14.8187 5.49255 14.2961 5.49255C13.2508 5.49255 12.4015 4.68665 12.4015 3.61211V3.47779C12.3361 2.40325 13.1854 1.46303 14.2307 1.39587C14.7534 1.39587 15.276 1.66451 15.6027 2.06746V0.724286C15.2107 0.455652 14.688 0.388493 14.2307 0.388493C12.5321 0.254175 11.2255 1.66451 11.2255 3.41063ZM9.2003 2.67196C8.54699 2.40332 8.351 2.269 8.351 1.93321C8.41633 1.53026 8.74299 1.19446 9.13497 1.26162C9.46163 1.26162 9.78828 1.4631 10.0496 1.73173L10.6376 0.925829C10.1803 0.522877 9.59229 0.254242 9.00431 0.254242C8.08968 0.187084 7.30571 0.925829 7.24038 1.86605V1.93321C7.24038 2.73911 7.56703 3.20922 8.61232 3.54502C8.87365 3.61218 9.13497 3.74649 9.39629 3.88081C9.59229 4.01513 9.72295 4.21661 9.72295 4.48524C9.72295 4.95535 9.33096 5.3583 8.93898 5.3583H8.87365C8.351 5.3583 7.89368 5.02251 7.69769 4.5524L6.97905 5.29114C7.37104 6.02989 8.15501 6.43284 8.93898 6.43284C9.98427 6.5 10.8336 5.6941 10.8989 4.61956V4.41808C10.8336 3.61218 10.5069 3.20922 9.2003 2.67196ZM5.41112 6.36574H6.52174V0.38862H5.41112V6.36574ZM0.25 0.388636H1.88327H2.20993C3.77787 0.455794 5.01916 1.79897 4.95382 3.41078C4.95382 4.28384 4.56184 5.08974 3.90853 5.69417C3.32055 6.16428 2.60191 6.43292 1.88327 6.36576H0.25V0.388636ZM1.68732 5.35842C2.20997 5.42558 2.79795 5.2241 3.18993 4.88831C3.58192 4.48535 3.77791 3.94808 3.77791 3.34366C3.77791 2.80639 3.58192 2.26912 3.18993 1.86616C2.79795 1.53037 2.20997 1.32889 1.68732 1.39605H1.36067V5.35842H1.68732Z" fill="black"></path>
  <path fill-rule="evenodd" clip-rule="evenodd" d="M18.9349 0.25C17.3016 0.25 15.9297 1.59317 15.9297 3.3393C15.9297 5.01827 17.2363 6.4286 18.9349 6.49576C20.6335 6.56292 21.9401 5.15258 22.0055 3.40646C21.9401 1.66033 20.6335 0.25 18.9349 0.25V0.25Z" fill="#FD6020"></path>
</svg>
