<svg id="Layer_1" data-name="Layer 1" xmlns="http://www.w3.org/2000/svg" xmlns:xlink="http://www.w3.org/1999/xlink" viewBox="0 0 1373 1132.7"><defs><style>.cls-1{fill:#e9d0ce;}.cls-2{fill:none;}.cls-3,.cls-4{fill:#e1e1e1;}.cls-36,.cls-37,.cls-4,.cls-5,.cls-6{fill-rule:evenodd;}.cls-5,.cls-7{fill:#ececec;}.cls-6{fill:#f5f5f5;}.cls-37,.cls-8{fill:#375a64;}.cls-9{fill:#1a2e35;}.cls-10{fill:url(#linear-gradient);}.cls-11{fill:#fff;}.cls-12{fill:url(#linear-gradient-2);}.cls-13{fill:url(#linear-gradient-3);}.cls-14{opacity:0.3;}.cls-15{fill:url(#linear-gradient-4);}.cls-16{fill:url(#linear-gradient-5);}.cls-17{fill:url(#linear-gradient-6);}.cls-18{fill:url(#linear-gradient-7);}.cls-19{fill:url(#linear-gradient-8);}.cls-20{fill:url(#linear-gradient-9);}.cls-21{fill:url(#linear-gradient-10);}.cls-22{fill:url(#linear-gradient-11);}.cls-23{fill:url(#linear-gradient-12);}.cls-24{fill:url(#linear-gradient-13);}.cls-25{fill:url(#linear-gradient-14);}.cls-26{opacity:0.8;}.cls-27{fill:url(#linear-gradient-15);}.cls-28{opacity:0.6;}.cls-29{fill:url(#linear-gradient-16);}.cls-30{fill:url(#linear-gradient-17);}.cls-31{fill:url(#linear-gradient-18);}.cls-32{fill:url(#linear-gradient-19);}.cls-33{fill:url(#linear-gradient-20);}.cls-34{fill:url(#linear-gradient-21);}.cls-35{fill:url(#linear-gradient-22);}.cls-36{fill:url(#linear-gradient-23);}.cls-38{fill:url(#linear-gradient-24);}.cls-39{fill:url(#linear-gradient-25);}.cls-40{fill:url(#linear-gradient-26);}.cls-41{fill:url(#linear-gradient-27);}.cls-42,.cls-43{fill:#a73833;}.cls-43{font-size:87.33px;font-family:AvenirLTPro-Black, Avenir LT Pro;font-weight:800;}.cls-44{letter-spacing:-0.02em;}.cls-45{opacity:0.5;}</style><linearGradient id="linear-gradient" x1="163.92" y1="240.9" x2="445.76" y2="240.9" gradientTransform="translate(258.27 -144.83) rotate(44.8)" gradientUnits="userSpaceOnUse"><stop offset="0" stop-color="#a73a30"/><stop offset="1" stop-color="#c8837d"/></linearGradient><linearGradient id="linear-gradient-2" x1="440.14" y1="1010.48" x2="542.86" y2="1010.48" gradientTransform="matrix(1, 0, 0, 1, 0, 0)" xlink:href="#linear-gradient"/><linearGradient id="linear-gradient-3" x1="415.52" y1="1107.61" x2="571.52" y2="1107.61" gradientTransform="matrix(1, 0, 0, 1, 0, 0)" xlink:href="#linear-gradient"/><linearGradient id="linear-gradient-4" x1="601.02" y1="1010.48" x2="703.73" y2="1010.48" gradientTransform="matrix(1, 0, 0, 1, 0, 0)" xlink:href="#linear-gradient"/><linearGradient id="linear-gradient-5" x1="576.4" y1="1107.61" x2="732.39" y2="1107.61" gradientTransform="matrix(1, 0, 0, 1, 0, 0)" xlink:href="#linear-gradient"/><linearGradient id="linear-gradient-6" x1="708.07" y1="541.3" x2="757.78" y2="541.3" gradientTransform="translate(1078 -301.79) rotate(75.83)" xlink:href="#linear-gradient"/><linearGradient id="linear-gradient-7" x1="698.64" y1="575.14" x2="750.45" y2="575.14" gradientTransform="translate(1104.26 -268.08) rotate(75.83)" xlink:href="#linear-gradient"/><linearGradient id="linear-gradient-8" x1="727.87" y1="559.01" x2="757.78" y2="559.01" gradientTransform="translate(1102.99 -298.06) rotate(75.83)" xlink:href="#linear-gradient"/><linearGradient id="linear-gradient-9" x1="751.33" y1="657.97" x2="894.96" y2="657.97" gradientTransform="matrix(1, 0, 0, 1, 0, 0)" xlink:href="#linear-gradient"/><linearGradient id="linear-gradient-10" x1="153.55" y1="1001.99" x2="337.45" y2="1001.99" gradientTransform="matrix(1, 0, 0, 1, 0, 0)" xlink:href="#linear-gradient"/><linearGradient id="linear-gradient-11" x1="91.14" y1="1066.54" x2="138.26" y2="1066.54" gradientTransform="translate(1179.02 933.1) rotate(88.99)" xlink:href="#linear-gradient"/><linearGradient id="linear-gradient-12" x1="90.46" y1="1101.31" x2="137.74" y2="1101.31" gradientTransform="translate(1213.18 967.87) rotate(88.99)" xlink:href="#linear-gradient"/><linearGradient id="linear-gradient-13" x1="118.92" y1="1081.66" x2="138.26" y2="1081.66" gradientTransform="translate(1207.82 934.07) rotate(88.99)" xlink:href="#linear-gradient"/><linearGradient id="linear-gradient-14" x1="423.21" y1="537.51" x2="666.8" y2="537.51" gradientTransform="matrix(1, 0, 0, 1, 0, 0)" xlink:href="#linear-gradient"/><linearGradient id="linear-gradient-15" x1="460.06" y1="556.46" x2="640.5" y2="556.46" gradientTransform="matrix(1, 0, 0, 1, 0, 0)" xlink:href="#linear-gradient"/><linearGradient id="linear-gradient-16" x1="557.27" y1="443.94" x2="587.07" y2="443.94" gradientTransform="matrix(1, 0, 0, 1, 0, 0)" xlink:href="#linear-gradient"/><linearGradient id="linear-gradient-17" x1="383.9" y1="341.78" x2="415.26" y2="341.78" gradientTransform="matrix(1, 0, 0, 1, 0, 0)" xlink:href="#linear-gradient"/><linearGradient id="linear-gradient-18" x1="433.69" y1="512.44" x2="500.52" y2="512.44" gradientTransform="matrix(1, 0, 0, 1, 0, 0)" xlink:href="#linear-gradient"/><linearGradient id="linear-gradient-19" x1="571.95" y1="523.26" x2="598.74" y2="523.26" gradientTransform="matrix(1, 0, 0, 1, 0, 0)" xlink:href="#linear-gradient"/><linearGradient id="linear-gradient-20" x1="617" y1="494.4" x2="645.89" y2="494.4" gradientTransform="matrix(1, 0, 0, 1, 0, 0)" xlink:href="#linear-gradient"/><linearGradient id="linear-gradient-21" x1="445.43" y1="554.8" x2="476.64" y2="554.8" gradientTransform="matrix(1, 0, 0, 1, 0, 0)" xlink:href="#linear-gradient"/><linearGradient id="linear-gradient-22" x1="409.35" y1="511.94" x2="433.28" y2="511.94" gradientTransform="matrix(1, 0, 0, 1, 0, 0)" xlink:href="#linear-gradient"/><linearGradient id="linear-gradient-23" x1="380.05" y1="443.94" x2="419.12" y2="443.94" gradientTransform="matrix(1, 0, 0, 1, 0, 0)" xlink:href="#linear-gradient"/><linearGradient id="linear-gradient-24" x1="423.54" y1="478.49" x2="567.39" y2="478.49" gradientTransform="matrix(1, 0, 0, 1, 0, 0)" xlink:href="#linear-gradient"/><linearGradient id="linear-gradient-25" x1="437.5" y1="453.3" x2="498.63" y2="453.3" gradientTransform="matrix(1, 0, 0, 1, 0, 0)" xlink:href="#linear-gradient"/><linearGradient id="linear-gradient-26" x1="392.73" y1="795.31" x2="751.33" y2="795.31" gradientTransform="matrix(1, 0, 0, 1, 0, 0)" xlink:href="#linear-gradient"/><linearGradient id="linear-gradient-27" x1="621.77" y1="757.24" x2="677.54" y2="757.24" gradientTransform="matrix(1, 0, 0, 1, 0, 0)" xlink:href="#linear-gradient"/></defs><path class="cls-1" d="M1165.17,181.51A119.86,119.86,0,0,0,983.85,98,158.64,158.64,0,0,0,846.92,20.25c-88.13,0-159.83,71.7-159.83,159.84,0,.54,0,1.11,0,1.66C630.47,191.29,585.86,240.67,585.86,300c0,66.11,55.1,119.88,121.21,119.88h439.55c66.1,0,121.21-53.77,121.21-119.88C1267.83,240.16,1222.5,190.47,1165.17,181.51Z"/><path class="cls-2" d="M835.71,566.57a52.41,52.41,0,0,1,5.09-12.88l-7-10.75,14.78-15.26,11,6.67a52,52,0,0,1,12.7-5.51l2.64-12.57,21.24-.34,3,12.47A52,52,0,0,1,912,533.5l10.75-7L938,541.24l-6.67,11a52,52,0,0,1,5.51,12.7l12.57,2.64.34,21.24-12.47,3a52.41,52.41,0,0,1-5.09,12.88l7,10.75-14.77,15.26-11-6.67a52,52,0,0,1-12.7,5.51l-2.64,12.57-21.24.34-3-12.47A52.41,52.41,0,0,1,861,624.92l-10.75,7L835,617.17l6.67-11a52,52,0,0,1-5.51-12.7l-12.57-2.63-.34-21.25,12.47-3Zm28,12a22.79,22.79,0,1,0,22.42-23.16A22.79,22.79,0,0,0,863.71,578.61Z"/><path class="cls-3" d="M863.71,578.61a17.46,17.46,0,0,1,.39-5.63,22.67,22.67,0,0,1,8-13,23,23,0,0,1,9.69-4.58,23.24,23.24,0,0,1,12.27.75,23.33,23.33,0,0,1,11,7.93,23.23,23.23,0,0,1,.45,27.66,23.28,23.28,0,0,1-10.75,8.29,23.11,23.11,0,0,1-22.08-3.12,22.69,22.69,0,0,1-8.46-12.7,17.31,17.31,0,0,1-.57-5.62c.16,0,.08,2,1,5.49a22.71,22.71,0,0,0,8.52,12.12,22.22,22.22,0,0,0,9.47,4,22.47,22.47,0,0,0,11.67-1.2,21.05,21.05,0,0,0,5.56-3.13,20.81,20.81,0,0,0,4.6-4.8,22.1,22.1,0,0,0-.43-26.21,22.42,22.42,0,0,0-10.41-7.59,22.29,22.29,0,0,0-21,3.45,22.74,22.74,0,0,0-8.12,12.39C863.72,576.58,863.87,578.62,863.71,578.61Z"/><path class="cls-3" d="M835.71,566.57a6.68,6.68,0,0,1-.77.24l-2.35.62-9.31,2.38.16-.2c.12,5.44.27,12.59.46,21.24l-.25-.31,12.57,2.59.22,0,.06.22A52,52,0,0,0,842,606l.13.21-.13.22-6.64,11-.07-.55,15.3,14.74-.62-.06,10.74-7,.26-.17.27.16a52.15,52.15,0,0,0,12.76,5l.32.08.08.31c.94,3.87,2,8.13,3.05,12.47l-.55-.42,21.24-.38-.56.47c.82-3.92,1.72-8.22,2.62-12.57l.08-.35.34-.1a51.83,51.83,0,0,0,12.56-5.46l.31-.19.32.19,11,6.67-.75.1L938.81,615l-.08.78c-2.22-3.4-4.61-7.06-7-10.75l-.2-.32.18-.33a51.16,51.16,0,0,0,5-12.71h0l.1-.37.36-.09,12.47-3-.47.62q-.18-10.75-.34-21.24l.49.59-12.56-2.64-.37-.07-.1-.36a51.57,51.57,0,0,0-5.44-12.56l-.19-.31.19-.32,6.68-11,.1.73-15.25-14.79.71.07-10.76,7-.28.19-.3-.17A51.87,51.87,0,0,0,899,528.92l-.32-.08-.08-.31c-1-4.28-2-8.43-3-12.48l.52.4-21.25.3.46-.38c-.93,4.42-1.81,8.56-2.66,12.56l0,.27-.26.07a51.72,51.72,0,0,0-12.62,5.43l-.22.13-.21-.13L848.36,528l.46,0L834,543.14l0-.35,7,10.79.07.11-.06.1a54,54,0,0,0-4.24,9.51c-.33,1.06-.58,1.87-.77,2.46s-.26.81-.26.81,0-.3.16-.84.34-1.39.68-2.49a50.32,50.32,0,0,1,4.08-9.64v.2l-7.1-10.7-.12-.19.16-.16,14.71-15.33.2-.21.26.15,11,6.64h-.43a52.2,52.2,0,0,1,12.8-5.59l-.32.34c.83-4,1.69-8.15,2.61-12.57l.07-.38h.39l21.24-.38h.41l.1.41c1,4,2,8.19,3.06,12.46l-.39-.4a52.92,52.92,0,0,1,13,5.14l-.58,0,10.74-7,.39-.25.33.32,15.28,14.76.34.33-.25.4-6.66,11v-.62a52.49,52.49,0,0,1,5.58,12.85l-.46-.44L949.57,567l.49.1v.5q.18,10.47.36,21.24v.5l-.48.11-12.47,3,.46-.45h0a52.56,52.56,0,0,1-5.15,13l0-.64,7,10.75.27.41-.34.36-14.78,15.26-.35.35-.41-.25-11-6.68h.62A52.54,52.54,0,0,1,901,630.14l.42-.45c-.92,4.36-1.82,8.65-2.65,12.56l-.09.46h-.47l-21.24.32h-.45l-.1-.44c-1-4.34-2.08-8.6-3-12.47l.39.4a53.31,53.31,0,0,1-13-5.17l.53,0-10.76,7-.33.22-.28-.27-15.23-14.81-.26-.25.19-.31,6.7-10.95v.42a52,52,0,0,1-5.51-12.81l.27.26-12.55-2.68-.25-.06v-.25c-.1-8.65-.17-15.81-.23-21.24v-.17l.15,0,9.28-2.15,2.4-.54A6.6,6.6,0,0,1,835.71,566.57Z"/><path class="cls-4" d="M57.86,807.58a58.53,58.53,0,0,1,5.7-14.4l-7.86-12,16.53-17.07,12.27,7.46a58.12,58.12,0,0,1,14.21-6.16l3-14.06,23.76-.38,3.39,13.95a57.83,57.83,0,0,1,14.41,5.7l12-7.86,17.08,16.52-7.47,12.28A58.15,58.15,0,0,1,171,805.74l14,2.94.39,23.76-14,3.4a58.14,58.14,0,0,1-5.7,14.4l7.86,12-16.53,17.07-12.27-7.46A58.12,58.12,0,0,1,130.66,878l-3,14.05-23.75.39-3.4-14a58.19,58.19,0,0,1-14.41-5.69l-12,7.85L57.06,864.17l7.46-12.28a58.15,58.15,0,0,1-6.17-14.21L44.3,834.74,43.91,811l14-3.4Zm31.32,13.47a25.49,25.49,0,1,0,25.07-25.91A25.49,25.49,0,0,0,89.18,821.05Z"/><path class="cls-4" d="M761.86,446.6a17.12,17.12,0,0,1,1.65-4.16L761.24,439,766,434l3.54,2.15a17.33,17.33,0,0,1,4.11-1.78l.85-4.05,6.86-.11,1,4a17.28,17.28,0,0,1,4.16,1.65l3.47-2.27,4.93,4.77L792.75,442a16.55,16.55,0,0,1,1.78,4.11l4.06.85.11,6.86-4,1a16.85,16.85,0,0,1-1.64,4.16l2.27,3.47-4.78,4.93L787,465.16a16.48,16.48,0,0,1-4.1,1.78L782,471l-6.86.11-1-4a16.7,16.7,0,0,1-4.16-1.64l-3.47,2.27-4.93-4.77,2.15-3.55a17.26,17.26,0,0,1-1.78-4.1l-4-.85-.11-6.86,4-1Zm9,3.89a7.36,7.36,0,1,0,7.24-7.48A7.36,7.36,0,0,0,770.9,450.49Z"/><path class="cls-5" d="M56.42,517.61a23.2,23.2,0,0,1,2.27-5.76l-3.14-4.8,6.61-6.82,4.9,3a23.61,23.61,0,0,1,5.68-2.47l1.18-5.61,9.49-.16,1.36,5.58a23.07,23.07,0,0,1,5.76,2.28l4.8-3.14,6.83,6.6-3,4.9a23.39,23.39,0,0,1,2.47,5.68l5.61,1.18.16,9.5-5.58,1.35a23,23,0,0,1-2.27,5.76l3.14,4.81-6.61,6.82-4.9-3a23.59,23.59,0,0,1-5.68,2.46l-1.18,5.62-9.49.15L73.48,546a23.46,23.46,0,0,1-5.76-2.28l-4.8,3.14-6.83-6.6,3-4.91a23.23,23.23,0,0,1-2.47-5.68L51,528.46,50.84,519l5.58-1.36ZM68.93,523a10.19,10.19,0,1,0,10-10.35A10.19,10.19,0,0,0,68.93,523Z"/><path class="cls-6" d="M503.62,320a21.37,21.37,0,0,1,2.06-5.2l-2.83-4.33,5.95-6.16,4.43,2.69a20.89,20.89,0,0,1,5.12-2.22l1.06-5.07,8.57-.14,1.23,5a21.3,21.3,0,0,1,5.19,2.06l4.34-2.84,6.15,6-2.69,4.43a20.52,20.52,0,0,1,2.22,5.12l5.07,1.06.14,8.57-5,1.23a20.88,20.88,0,0,1-2.05,5.19l2.83,4.33-6,6.16L535,343.13a21.13,21.13,0,0,1-5.13,2.22l-1.06,5.07-8.57.14-1.22-5a21.34,21.34,0,0,1-5.2-2l-4.33,2.83-6.16-6,2.69-4.43a21.28,21.28,0,0,1-2.22-5.12l-5.07-1.06-.14-8.57,5-1.22Zm11.3,4.85a9.19,9.19,0,1,0,9-9.34A9.19,9.19,0,0,0,514.92,324.8Z"/><path class="cls-7" d="M101.63,386.9a27.85,27.85,0,0,1,4.31-.11c1.38,0,3.08,0,5,.17s4.21.2,6.67.51a153.44,153.44,0,0,1,17.21,2.73,171.94,171.94,0,0,1,20.49,5.94,170.58,170.58,0,0,1,19.5,8.68,154.32,154.32,0,0,1,14.91,9c2.08,1.35,3.84,2.75,5.43,3.91s2.91,2.23,4,3.13a27,27,0,0,1,3.22,2.86,29.88,29.88,0,0,1-3.52-2.47c-1.1-.84-2.45-1.85-4.07-2.95s-3.41-2.45-5.51-3.74a169.74,169.74,0,0,0-15-8.72,184.69,184.69,0,0,0-19.4-8.52,182.39,182.39,0,0,0-20.31-6,172.48,172.48,0,0,0-17.06-3c-2.44-.37-4.67-.5-6.62-.7s-3.63-.3-5-.37A27.44,27.44,0,0,1,101.63,386.9Z"/><path class="cls-7" d="M57.15,654.32a9.85,9.85,0,0,1,1.29-1.08l3.85-2.92c1.67-1.28,3.74-2.8,6.23-4.43s5.26-3.62,8.5-5.51,6.71-4.1,10.62-6.16,8.1-4.22,12.55-6.41A262.91,262.91,0,0,1,130.25,616a264.71,264.71,0,0,1,31.37-7.67c4.91-.77,9.56-1.57,14-2s8.48-.85,12.23-1.08,7.14-.3,10.12-.39,5.55,0,7.64,0l4.83.17a8.89,8.89,0,0,1,1.68.14,7.92,7.92,0,0,1-1.69.11l-4.82.06c-2.09,0-4.65,0-7.62.19s-6.36.2-10.08.57-7.81.62-12.17,1.23-9,1.3-13.88,2.1a273.17,273.17,0,0,0-31.19,7.73,276.07,276.07,0,0,0-29.95,11.65C96.23,631,92,633,88.13,635.13s-7.44,4.09-10.65,6-6.06,3.75-8.57,5.33-4.63,3-6.34,4.24l-4,2.73A8,8,0,0,1,57.15,654.32Z"/><path class="cls-7" d="M229.67,783.35a4.38,4.38,0,0,1,.17-1.3l.72-3.68c.31-1.6.73-3.54,1.31-5.78s1.16-4.81,2-7.6c1.55-5.61,3.71-12.2,6.4-19.42s6.09-15,10-22.94,8.26-15.28,12.37-21.79,8.16-12.16,11.73-16.76c1.72-2.34,3.43-4.35,4.88-6.14s2.76-3.31,3.85-4.52l2.51-2.78a5.19,5.19,0,0,1,.94-.91,5.48,5.48,0,0,1-.75,1.08l-2.33,2.92c-1,1.26-2.28,2.8-3.67,4.64s-3.05,3.88-4.73,6.24c-3.46,4.66-7.36,10.36-11.46,16.84s-8.23,13.84-12.22,21.74-7.29,15.66-10.09,22.79-5,13.7-6.63,19.26c-.89,2.76-1.54,5.31-2.17,7.53s-1.13,4.14-1.52,5.71-.7,2.66-.95,3.62A5.43,5.43,0,0,1,229.67,783.35Z"/><path class="cls-7" d="M555.79,124.48a10,10,0,0,1-.93,1.46L552,130c-1.27,1.73-2.8,3.87-4.49,6.42s-3.73,5.37-5.74,8.64-4.33,6.79-6.58,10.71-4.63,8.12-7.07,12.58c-4.73,9-9.56,19.07-14,29.92s-8,21.47-10.86,31.21c-1.36,4.89-2.71,9.53-3.72,13.94s-2,8.5-2.76,12.26-1.37,7.19-1.92,10.2-1,5.6-1.27,7.73-.57,3.66-.76,4.9a9.73,9.73,0,0,1-.35,1.7,9,9,0,0,1,.1-1.73c.14-1.25.31-2.89.53-4.93s.55-4.76,1.06-7.78.95-6.48,1.75-10.26,1.53-7.93,2.62-12.33,2.28-9.1,3.61-14c2.85-9.79,6.41-20.44,10.81-31.36s9.35-21,14.15-30c2.48-4.45,4.79-8.71,7.2-12.56s4.6-7.44,6.73-10.66,4.15-6.06,5.91-8.56,3.34-4.62,4.67-6.31l3.07-3.9A8.79,8.79,0,0,1,555.79,124.48Z"/><path class="cls-7" d="M771.91,373.86a6.53,6.53,0,0,1-1.45.27l-4.15.55-3,.37c-1.1.16-2.27.42-3.54.65-2.53.51-5.44.92-8.56,1.83l-4.93,1.28c-1.71.46-3.44,1.12-5.25,1.69-3.66,1.1-7.4,2.73-11.38,4.33a138.22,138.22,0,0,0-45.33,31.86c-2.86,3.19-5.66,6.16-7.93,9.23-1.16,1.51-2.37,2.91-3.38,4.37s-2,2.86-2.87,4.2c-1.92,2.63-3.29,5.23-4.62,7.44-.65,1.11-1.29,2.13-1.82,3.1s-.94,1.88-1.36,2.7l-1.92,3.72a6.85,6.85,0,0,1-.75,1.27,6.26,6.26,0,0,1,.52-1.37c.44-1,1-2.27,1.71-3.83l1.27-2.76c.5-1,1.11-2,1.74-3.17A85.4,85.4,0,0,1,669.4,434l2.83-4.28c1-1.48,2.19-2.91,3.34-4.45,2.25-3.12,5-6.14,7.91-9.38a134.68,134.68,0,0,1,45.72-32.12c4-1.6,7.8-3.2,11.5-4.26,1.84-.56,3.59-1.2,5.32-1.64l5-1.21c3.16-.86,6.1-1.21,8.66-1.66,1.28-.2,2.46-.42,3.57-.55l3-.26,4.19-.32A7.17,7.17,0,0,1,771.91,373.86Z"/><path class="cls-7" d="M948.41,516.7a2.16,2.16,0,0,1-.63-.17l-1.81-.61-6.89-2.48-5-1.82c-1.83-.63-3.85-1.23-6-1.92-4.31-1.34-9.16-3.05-14.67-4.45l-8.61-2.34c-3-.81-6.16-1.43-9.4-2.2-6.49-1.61-13.53-2.78-20.92-4.14a364.12,364.12,0,0,0-97.36-3c-7.45.9-14.56,1.64-21.13,2.85-3.29.56-6.49,1-9.52,1.61l-8.73,1.82c-5.59,1.05-10.53,2.46-14.92,3.54-2.18.56-4.23,1-6.09,1.55l-5.07,1.51-7,2-1.84.51a3,3,0,0,1-.64.13,2.3,2.3,0,0,1,.6-.25l1.8-.63,7-2.27,5-1.62c1.86-.55,3.9-1.06,6.08-1.66,4.38-1.14,9.32-2.61,14.91-3.72l8.73-1.9c3-.65,6.25-1.11,9.54-1.69,6.59-1.26,13.7-2,21.18-3a354.61,354.61,0,0,1,97.67,3c7.41,1.39,14.46,2.6,21,4.26,3.25.79,6.42,1.44,9.42,2.27l8.6,2.43c5.51,1.45,10.35,3.23,14.65,4.63,2.14.73,4.15,1.37,6,2l4.94,1.93,6.82,2.7,1.76.73A2.7,2.7,0,0,1,948.41,516.7Z"/><path class="cls-8" d="M361.9,89.12h22.71a13.95,13.95,0,0,1,13.95,13.95V151.2a13.95,13.95,0,0,1-13.95,13.95H361.9a0,0,0,0,1,0,0v-76A0,0,0,0,1,361.9,89.12Z" transform="translate(20.83 304.81) rotate(-44.79)"/><path class="cls-9" d="M394,167.1l0,0-53.61-54,0,0,2.26-2.24a33.31,33.31,0,0,1,23.63-9.74h.12A33.34,33.34,0,0,1,390.09,111l6.38,6.43a33.55,33.55,0,0,1-.17,47.44Zm-53.48-54L394,166.94l2.21-2.2a33.41,33.41,0,0,0,.17-47.27L390,111a33.21,33.21,0,0,0-23.6-9.87h-.12a33.21,33.21,0,0,0-23.55,9.71Z"/><path class="cls-8" d="M174.7,272.08h22.71A13.95,13.95,0,0,1,211.36,286v48.13a14,14,0,0,1-14,14H174.7a0,0,0,0,1,0,0v-76A0,0,0,0,1,174.7,272.08Z" transform="translate(545.19 407.05) rotate(137.3)"/><path class="cls-9" d="M207.27,336.69l-1.38,0a33.29,33.29,0,0,1-23.3-10.77l-6.14-6.65a33.54,33.54,0,0,1,1.9-47.4l2.37-2.2,0,.05,51.61,55.91-.05,0L230,327.79A33.3,33.3,0,0,1,207.27,336.69Zm-28.84-64.77a33.44,33.44,0,0,0-1.9,47.24l6.15,6.65a33.2,33.2,0,0,0,23.22,10.73c.46,0,.91,0,1.37,0a33.22,33.22,0,0,0,22.64-8.86l2.29-2.12-51.48-55.78Z"/><rect class="cls-8" x="163.48" y="195.73" width="6.01" height="49.66" transform="translate(-109.71 211.68) rotate(-51.11)"/><path class="cls-9" d="M151.55,192.79a12.24,12.24,0,1,1-17.21,1.84A12.23,12.23,0,0,1,151.55,192.79Z"/><rect class="cls-10" x="185.8" y="151.08" width="238.07" height="179.64" rx="16.5" transform="translate(-81.22 284.75) rotate(-44.8)"/><polygon class="cls-8" points="301.05 118.09 295.75 97.83 281.94 100.12 277.96 85.5 282.47 84.46 285.64 95.11 299.39 93.24 305.16 114 301.05 118.09"/><rect class="cls-9" x="184.14" y="185.55" width="204.34" height="73.39" rx="13.96" transform="translate(-73.45 266.28) rotate(-44.8)"/><path class="cls-9" d="M366.25,208.76s.29-.38.9-1.08a38.14,38.14,0,0,0,2.64-3.18,41,41,0,0,0,7-14.09,46.08,46.08,0,0,0,1.59-11.29,44.08,44.08,0,0,0-2.16-13.35,41.35,41.35,0,0,0-7.49-13.57L366,149.09,362.87,146a62.92,62.92,0,0,0-6.63-6,41.73,41.73,0,0,0-47.77-2,51.41,51.41,0,0,0-8.67,7.25L282.87,162l-75.45,75a41.74,41.74,0,0,0-11.93,24.25,43.34,43.34,0,0,0,.43,13.41A41.92,41.92,0,0,0,200.54,287a43.58,43.58,0,0,0,3.64,5.43c1.42,1.65,2.82,3.27,4.39,4.81,3.11,3.08,6,6.29,9.47,8.69a41.61,41.61,0,0,0,45.59,2.08,43.58,43.58,0,0,0,4.7-3.19c1.43-1.23,2.83-2.45,4.17-3.77l7.88-7.8,28.76-28.44,41.7-41.13,11.38-11.13,3-2.88c.68-.64,1.05-1,1.05-1s-.31.37-1,1l-2.89,3-11.22,11.31-41.42,41.4L281.11,294l-7.85,7.82c-1.34,1.32-2.8,2.6-4.25,3.85a44.58,44.58,0,0,1-4.82,3.3,42.75,42.75,0,0,1-46.85-2.06c-3.59-2.49-6.54-5.76-9.63-8.81-1.55-1.51-3-3.21-4.49-4.9a44.26,44.26,0,0,1-3.74-5.59,43.06,43.06,0,0,1-4.77-12.73,44.37,44.37,0,0,1-.45-13.81,43,43,0,0,1,12.28-25l75.51-74.91,17-16.82a52.61,52.61,0,0,1,8.87-7.37,43,43,0,0,1,31.2-5.84,43.45,43.45,0,0,1,17.69,8.08,64,64,0,0,1,6.69,6.16l3.06,3.1,2.86,3.17a42.21,42.21,0,0,1,7.54,13.86A44.49,44.49,0,0,1,379,179.12a45.71,45.71,0,0,1-1.71,11.42A40.43,40.43,0,0,1,370,204.66a30.86,30.86,0,0,1-2.75,3.1C366.6,208.44,366.25,208.76,366.25,208.76Z"/><path class="cls-11" d="M241.67,284.32c-.34,0-.76-9.67-.93-21.6s0-21.61.32-21.61.76,9.66.93,21.59S242,284.31,241.67,284.32Z"/><path class="cls-11" d="M262.58,261c0,.34-9.65,1.06-21.58,1.6s-21.62.69-21.64.35,9.64-1.06,21.58-1.6S262.56,260.66,262.58,261Z"/><path class="cls-11" d="M327.22,197.13c-.34,0-.76-9.67-.93-21.6s0-21.61.32-21.62.76,9.67.93,21.6S327.57,197.12,327.22,197.13Z"/><path class="cls-11" d="M348.13,173.82c0,.34-9.65,1.06-21.58,1.6s-21.62.69-21.64.35,9.65-1.06,21.58-1.6S348.11,173.47,348.13,173.82Z"/><circle class="cls-9" cx="277.4" cy="76.79" r="12.24" transform="translate(-1.15 4.3) rotate(-0.89)"/><path class="cls-9" d="M315.48,356.91a11.51,11.51,0,0,1-2.11-1.74c-1.31-1.18-3.16-2.92-5.44-5.09-4.55-4.33-10.78-10.38-17.58-17.14S277.43,320,273.08,315.48s-7-7.48-6.76-7.62a20,20,0,0,1,2,1.84l5.36,5.15,17.52,17.21c6.8,6.75,12.93,12.9,17.32,17.39l5.16,5.37A11.6,11.6,0,0,1,315.48,356.91Z"/><path class="cls-9" d="M419.46,252.19a11.72,11.72,0,0,1-2.12-1.74c-1.3-1.18-3.16-2.92-5.43-5.09-4.55-4.33-10.78-10.38-17.59-17.14s-12.91-12.93-17.26-17.46-7-7.48-6.76-7.62a19.38,19.38,0,0,1,2,1.84l5.36,5.15,17.52,17.21c6.81,6.75,12.94,12.9,17.33,17.39l5.16,5.37A11.6,11.6,0,0,1,419.46,252.19Z"/><rect class="cls-9" x="268.16" y="260.67" width="125.19" height="13.74" transform="translate(-91.93 315.65) rotate(-45.46)"/><path class="cls-9" d="M270.09,323.65a2.63,2.63,0,1,1-2.52-2.72A2.63,2.63,0,0,1,270.09,323.65Z"/><path class="cls-9" d="M290.11,344.8a2.62,2.62,0,1,1-2.51-2.73A2.62,2.62,0,0,1,290.11,344.8Z"/><path class="cls-9" d="M387.77,203.84a2.63,2.63,0,1,1-2.52-2.73A2.63,2.63,0,0,1,387.77,203.84Z"/><path class="cls-9" d="M407.79,225a2.63,2.63,0,1,1-2.52-2.73A2.63,2.63,0,0,1,407.79,225Z"/><path class="cls-11" d="M192.93,326.41c-.16.12-1.86-2.17-5.55-4.92-1.81-1.41-4.08-3-6.41-5a25.07,25.07,0,0,1-6.11-8A26.94,26.94,0,0,1,173,290.51a22.58,22.58,0,0,1,2-5.18,6.5,6.5,0,0,1,1.15-1.67c.23.11-1.37,2.56-2.24,7A27.74,27.74,0,0,0,176,307.91c2.9,6.37,8.47,9.88,11.95,12.89S193.07,326.34,192.93,326.41Z"/><path class="cls-11" d="M297.28,133.32c.24.25-25,25.15-56.36,55.62s-57,55-57.23,54.74,25-25.15,56.36-55.63S297,133.07,297.28,133.32Z"/><path class="cls-11" d="M141.25,211c0,.14-1.25,0-2.87-1.07a9.87,9.87,0,0,1-2.87-13.46c1.05-1.64,2.11-2.26,2.19-2.15s-.65,1-1.41,2.58a10.08,10.08,0,0,0,2.62,12.32C140.26,210.33,141.32,210.76,141.25,211Z"/><path class="cls-11" d="M274.55,85.7c0,.14-1.35,0-3.06-1.24a10,10,0,0,1-1.87-14.52c1.34-1.61,2.58-2.1,2.65-2s-.89.91-1.94,2.5A10,10,0,0,0,272,83.77C273.47,85.05,274.63,85.51,274.55,85.7Z"/><path class="cls-11" d="M365.43,105c0,.39-4.67.14-9.86,2.24s-8.45,5.41-8.71,5.13,2.72-4.13,8.25-6.29S365.53,104.66,365.43,105Z"/><path class="cls-11" d="M265.79,361.2c-.25.24-8.27-7.66-17.91-17.64s-17.27-18.27-17-18.51,8.27,7.65,17.92,17.64S266,361,265.79,361.2Z"/><rect class="cls-12" x="440.14" y="937.68" width="102.71" height="145.58"/><path class="cls-9" d="M432.94,1080.76H550.06a5.7,5.7,0,0,1,5.7,5.7v9.29a0,0,0,0,1,0,0H427.23a0,0,0,0,1,0,0v-9.29A5.7,5.7,0,0,1,432.94,1080.76Z"/><rect class="cls-13" x="415.52" y="1095.75" width="156" height="23.72"/><path class="cls-9" d="M542.35,1067.27c0,.34-22.77.62-50.85.62s-50.86-.28-50.86-.62,22.77-.63,50.86-.63S542.35,1066.92,542.35,1067.27Z"/><path class="cls-9" d="M542.35,1050c0,.35-22.77.63-50.85.63s-50.86-.28-50.86-.63,22.77-.62,50.86-.62S542.35,1049.61,542.35,1050Z"/><path class="cls-9" d="M542.35,1033c0,.34-22.77.62-50.85.62s-50.86-.28-50.86-.62,22.77-.63,50.86-.63S542.35,1032.6,542.35,1033Z"/><path class="cls-9" d="M542.35,1015.64c0,.34-22.77.62-50.85.62s-50.86-.28-50.86-.62,22.77-.63,50.86-.63S542.35,1015.29,542.35,1015.64Z"/><path class="cls-9" d="M542.35,998.63c0,.35-22.77.63-50.85.63s-50.86-.28-50.86-.63,22.77-.62,50.86-.62S542.35,998.29,542.35,998.63Z"/><path class="cls-9" d="M542.35,981.32c0,.35-22.77.63-50.85.63s-50.86-.28-50.86-.63,22.77-.62,50.86-.62S542.35,981,542.35,981.32Z"/><path class="cls-9" d="M542.35,964.32c0,.34-22.77.62-50.85.62s-50.86-.28-50.86-.62,22.77-.63,50.86-.63S542.35,964,542.35,964.32Z"/><path class="cls-9" d="M542.35,947c0,.35-22.77.63-50.85.63s-50.86-.28-50.86-.63,22.77-.62,50.86-.62S542.35,946.66,542.35,947Z"/><g class="cls-14"><polygon points="440.14 957.97 542.35 955.13 542.35 940.29 439.22 940.29 440.14 957.97"/></g><rect class="cls-15" x="601.02" y="937.68" width="102.71" height="145.58"/><path class="cls-9" d="M593.81,1080.76H710.94a5.7,5.7,0,0,1,5.7,5.7v9.29a0,0,0,0,1,0,0H588.11a0,0,0,0,1,0,0v-9.29A5.7,5.7,0,0,1,593.81,1080.76Z"/><rect class="cls-16" x="576.4" y="1095.75" width="156" height="23.72"/><path class="cls-9" d="M703.23,1067.27c0,.34-22.77.62-50.85.62s-50.86-.28-50.86-.62,22.77-.63,50.86-.63S703.23,1066.92,703.23,1067.27Z"/><path class="cls-9" d="M703.23,1050c0,.35-22.77.63-50.85.63s-50.86-.28-50.86-.63,22.77-.62,50.86-.62S703.23,1049.61,703.23,1050Z"/><path class="cls-9" d="M703.23,1033c0,.34-22.77.62-50.85.62s-50.86-.28-50.86-.62,22.77-.63,50.86-.63S703.23,1032.6,703.23,1033Z"/><path class="cls-9" d="M703.23,1015.64c0,.34-22.77.62-50.85.62s-50.86-.28-50.86-.62,22.77-.63,50.86-.63S703.23,1015.29,703.23,1015.64Z"/><path class="cls-9" d="M703.23,998.63c0,.35-22.77.63-50.85.63s-50.86-.28-50.86-.63,22.77-.62,50.86-.62S703.23,998.29,703.23,998.63Z"/><path class="cls-9" d="M703.23,981.32c0,.35-22.77.63-50.85.63s-50.86-.28-50.86-.63,22.77-.62,50.86-.62S703.23,981,703.23,981.32Z"/><path class="cls-9" d="M703.23,964.32c0,.34-22.77.62-50.85.62s-50.86-.28-50.86-.62,22.77-.63,50.86-.63S703.23,964,703.23,964.32Z"/><path class="cls-9" d="M703.23,947c0,.35-22.77.63-50.85.63s-50.86-.28-50.86-.63,22.77-.62,50.86-.62S703.23,946.66,703.23,947Z"/><g class="cls-14"><polygon points="601.02 957.97 703.23 955.13 703.23 940.29 600.1 940.29 601.02 957.97"/></g><path class="cls-17" d="M725,517.69h15.51a1.83,1.83,0,0,1,1.83,1.83v45a0,0,0,0,1,0,0H723.14a0,0,0,0,1,0,0v-45A1.83,1.83,0,0,1,725,517.69Z" transform="translate(28.73 1119.08) rotate(-75.83)"/><g class="cls-14"><path d="M725,517.69h15.51a1.83,1.83,0,0,1,1.83,1.83v45a0,0,0,0,1,0,0H723.14a0,0,0,0,1,0,0v-45A1.83,1.83,0,0,1,725,517.69Z" transform="translate(28.73 1119.08) rotate(-75.83)"/></g><path class="cls-18" d="M712.84,551.4H735.6a3,3,0,0,1,3,3v43.79a0,0,0,0,1,0,0H709.79a0,0,0,0,1,0,0V554.44a3,3,0,0,1,3-3Z" transform="translate(-10.39 1136.29) rotate(-75.83)"/><rect class="cls-19" x="718.35" y="549.76" width="48.95" height="18.49" transform="translate(18.99 1142.39) rotate(-75.83)"/><path class="cls-20" d="M769.58,726s76.68-3.11,70.34-76.6c-4.86-56.3-88.59-56.81-88.59-56.81l21.41-46.78s97.85,8.52,117.17,79.77C911.73,706,861.27,771.7,769.58,770.15Z"/><rect class="cls-9" x="742.31" y="535.18" width="29.86" height="66.45" transform="translate(140.51 -150.03) rotate(12.46)"/><path class="cls-8" d="M765.91,597.19c-.06.56-6.61-.57-14.51-2.37s-14.26-3.6-14.18-3.93,6.55.9,14.46,2.71c4,.9,7.52,1.77,10.09,2.43l3,.8A5.08,5.08,0,0,1,765.91,597.19Z"/><path class="cls-8" d="M768.5,585.51c-.07.56-6.62-.57-14.52-2.37s-14.26-3.6-14.18-3.93,6.55.9,14.46,2.71c4,.9,7.52,1.77,10.1,2.42l3,.81A5.66,5.66,0,0,1,768.5,585.51Z"/><path class="cls-8" d="M771.58,573.83c-.07.56-6.61-.57-14.51-2.37s-14.26-3.6-14.18-3.94,6.54.91,14.45,2.72c4,.9,7.53,1.77,10.1,2.42l3,.81A5.36,5.36,0,0,1,771.58,573.83Z"/><path class="cls-8" d="M773.66,562.15c-.07.56-6.61-.57-14.52-2.37s-14.25-3.6-14.17-3.94,6.54.91,14.45,2.72c4,.9,7.52,1.77,10.1,2.42l3,.81A5.66,5.66,0,0,1,773.66,562.15Z"/><path class="cls-8" d="M776.66,551.22c-.06.56-6.61-.57-14.51-2.37s-14.26-3.6-14.18-3.94,6.55.91,14.46,2.72c4,.9,7.52,1.77,10.09,2.42l3,.81A5.08,5.08,0,0,1,776.66,551.22Z"/><path class="cls-9" d="M786.33,769.66c-.16,0-.78-2.44-1.56-6.47s-1.68-9.64-2.38-15.88-1.07-11.9-1.22-16-.09-6.64.08-6.65.44,2.52.81,6.6.87,9.71,1.57,15.92,1.47,11.81,2,15.88S786.51,769.63,786.33,769.66Z"/><path class="cls-9" d="M810.16,765.94c-.34.1-3.47-10.16-7-22.9s-6.11-23.15-5.78-23.24,3.46,10.16,7,22.91S810.49,765.85,810.16,765.94Z"/><path class="cls-9" d="M842.2,754.48c-.15.08-1.69-2.37-4.09-6.37l-9.35-15.64-9.4-15.62c-2.39-4-3.83-6.5-3.69-6.6s1.85,2.25,4.44,6.13,6,9.33,9.72,15.45,6.84,11.73,9,15.84S842.35,754.39,842.2,754.48Z"/><path class="cls-9" d="M869.16,732.86c-.22.27-9.77-7.29-21.32-16.88s-20.74-17.57-20.51-17.84,9.76,7.29,21.31,16.88S869.38,732.6,869.16,732.86Z"/><path class="cls-9" d="M886.51,703.24c-.13.31-11.42-4.08-25.21-9.83s-24.87-10.66-24.73-11,11.42,4.08,25.21,9.83S886.65,702.92,886.51,703.24Z"/><path class="cls-9" d="M895,671.25c0,.17-3.11-.15-8.07-.76l-19.4-2.4-19.42-2.34c-5-.6-8-1-8-1.21s3.12,0,8.11.33,11.89,1.06,19.48,2,14.43,1.94,19.37,2.77S895,671.08,895,671.25Z"/><path class="cls-9" d="M891.05,638.08c.05.16-2.71,1.14-7.25,2.46s-10.86,3-17.92,4.46-13.51,2.53-18.19,3.15-7.6.83-7.63.67,2.85-.7,7.49-1.54,11-2,18.08-3.51,13.36-3,17.94-4.08S891,637.91,891.05,638.08Z"/><path class="cls-9" d="M881.41,606.26c.15.31-10.14,5.81-23,12.28S835.05,630,834.89,629.7s10.13-5.8,23-12.28S881.25,606,881.41,606.26Z"/><path class="cls-9" d="M861.63,580.45c.23.26-8.33,8-19.1,17.28s-19.69,16.59-19.92,16.32,8.33-8,19.11-17.27S861.41,580.19,861.63,580.45Z"/><path class="cls-9" d="M828.27,561.28c.29.18-5.11,9.68-12.07,21.21s-12.84,20.75-13.13,20.57,5.1-9.67,12.06-21.21S828,561.1,828.27,561.28Z"/><path class="cls-9" d="M798.38,549.28c.32.11-2.88,10.71-7.15,23.67s-8,23.39-8.34,23.28,2.87-10.7,7.15-23.67S798.05,549.17,798.38,549.28Z"/><g class="cls-14"><path d="M834.39,687c-6.89,15.24-18.32,23.66-27.81,28.52a87.33,87.33,0,0,1-18.82,7.33c14.67,7.83,33.82,3.14,46.65-7.43s19.58-27.4,20-44c.22-7.87-.89-15.88-4.15-23s-8.65-14.69-15.8-18a44.24,44.24,0,0,1,4.47,12.6C841.23,654,841.72,670.79,834.39,687Z"/></g><path class="cls-9" d="M270.65,816.47a19.44,19.44,0,0,1,2.38,2.65c1.48,1.74,3.51,4.37,5.89,7.71a166.69,166.69,0,0,1,26.2,58.1c.93,4,1.56,7.26,1.88,9.53a18.25,18.25,0,0,1,.41,3.53,20.16,20.16,0,0,1-.88-3.44c-.47-2.24-1.24-5.46-2.26-9.4a188.32,188.32,0,0,0-26.08-57.82c-2.28-3.38-4.18-6.08-5.55-7.92A18.76,18.76,0,0,1,270.65,816.47Z"/><path class="cls-9" d="M260.45,808c.23-.26,1.37.37,2.54,1.41s1.93,2.1,1.7,2.35-1.36-.37-2.53-1.41S260.22,808.21,260.45,808Z"/><path class="cls-9" d="M262.79,800.9c.29-.18,1.48,1.26,2.65,3.21s1.88,3.67,1.58,3.85-1.48-1.26-2.65-3.21S262.49,801.08,262.79,800.9Z"/><path class="cls-8" d="M307.2,899.51a12.39,12.39,0,0,1,.37-1.93l1.29-5.46c1.12-4.75,2.74-11.62,4.59-20.14,3.69-17,8.18-40.72,11.47-67.11,1.76-13.16,2.39-25.93,5.48-37.18a56,56,0,0,1,6.44-15.17,44.36,44.36,0,0,1,9.56-10.71,45.36,45.36,0,0,1,18.55-9,39.91,39.91,0,0,1,5.58-.84,11.17,11.17,0,0,1,2,0,13,13,0,0,1-1.94.3,49.49,49.49,0,0,0-5.49,1.06A46.54,46.54,0,0,0,347,742.5a44,44,0,0,0-9.24,10.57A55.73,55.73,0,0,0,331.51,768c-3,11.09-3.58,23.83-5.35,37-3.3,26.44-7.93,50.15-11.85,67.15-2,8.51-3.71,15.35-5,20.07q-.94,3.39-1.51,5.41A10,10,0,0,1,307.2,899.51Z"/><path class="cls-9" d="M310.05,709.15c.27-.15,1.45,4.08,6.12,8.94s12.93,9.77,23.09,11.23,19.55,0,26.19-1.11l7.91-1.38a13.34,13.34,0,0,1,2.93-.38,13.9,13.9,0,0,1-2.83.85c-1.84.47-4.51,1.11-7.85,1.78-6.63,1.29-16.1,2.93-26.53,1.47s-19-6.69-23.55-11.86A25.81,25.81,0,0,1,311,712,10.23,10.23,0,0,1,310.05,709.15Z"/><path class="cls-9" d="M300.93,701.57c.25-.24,1.39.51,2.56,1.68s1.92,2.31,1.68,2.56-1.39-.51-2.56-1.68S300.69,701.81,300.93,701.57Z"/><path class="cls-9" d="M303.66,697.39c.3-.18,1.38,1,2.43,2.72s1.66,3.2,1.36,3.39-1.38-1-2.42-2.73S303.37,697.57,303.66,697.39Z"/><path class="cls-9" d="M311.17,696.84c.35.06.4,1.47.14,3.16s-.77,3-1.11,3-.4-1.47-.13-3.16S310.83,696.79,311.17,696.84Z"/><path class="cls-8" d="M333.79,790.59a30.16,30.16,0,0,1-.21,4.27c-.21,2.75-.61,6.71-1.18,11.6-1.15,9.77-3.15,23.23-6.14,37.95s-6.45,27.89-9.22,37.33c-1.39,4.72-2.57,8.52-3.46,11.13a27.67,27.67,0,0,1-1.48,4,27.43,27.43,0,0,1,1-4.15c.77-2.85,1.81-6.64,3.06-11.23,2.56-9.49,5.85-22.66,8.85-37.34s5.12-28.09,6.49-37.82l1.57-11.53A27.57,27.57,0,0,1,333.79,790.59Z"/><path class="cls-8" d="M376.34,735c0,.24-3.44.25-8.74,1.66a43.3,43.3,0,0,0-30.09,27.78c-1.83,5.18-2.12,8.62-2.35,8.58a7.66,7.66,0,0,1,.1-2.41,36.07,36.07,0,0,1,1.41-6.45,41.7,41.7,0,0,1,30.72-28.36,35.84,35.84,0,0,1,6.53-.89A8.05,8.05,0,0,1,376.34,735Z"/><path class="cls-8" d="M318.59,899a9.73,9.73,0,0,1,.1-1.8c.11-1.18.3-2.92.61-5.15.69-4.4,1.57-11.09,5.68-18.19,2-3.51,4.81-7,7.07-11.06a22.62,22.62,0,0,0,2.49-6.68,27.68,27.68,0,0,0,.21-7.58c-.39-5.21-1.91-10.82-.74-16.76a20.36,20.36,0,0,1,3.84-8.14c1.77-2.46,3.79-4.72,5.4-7.26a15.34,15.34,0,0,0,2.69-8.2,35.58,35.58,0,0,0-1.15-8.57,50.78,50.78,0,0,1-1.38-16.72,47.6,47.6,0,0,1,25.3-38.13,38.55,38.55,0,0,1,4.74-2.13,9.06,9.06,0,0,1,1.73-.54,10.79,10.79,0,0,1-1.63.77c-1.08.49-2.66,1.22-4.61,2.32a49.16,49.16,0,0,0-14.29,12.19A47.41,47.41,0,0,0,344.56,783,50.22,50.22,0,0,0,346,799.36a36.65,36.65,0,0,1,1.19,8.87,16.48,16.48,0,0,1-2.88,8.83c-1.68,2.65-3.72,4.93-5.44,7.32a19.14,19.14,0,0,0-3.65,7.66c-1.13,5.54.3,11.09.68,16.41a28.83,28.83,0,0,1-.27,7.89,23.37,23.37,0,0,1-2.67,7c-2.36,4.17-5.17,7.59-7.21,11-4.11,6.86-5.13,13.45-6,17.81-.35,2.12-.63,3.82-.84,5.11A10.07,10.07,0,0,1,318.59,899Z"/><path class="cls-3" d="M379.17,759.89a21.6,21.6,0,0,0-5.9.83,23.51,23.51,0,0,0-12.41,9.91c-3.84,5.73-5.55,14-6.46,23a291.94,291.94,0,0,1-4.4,29.57c-4.23,20.82-10,39.17-14.3,52.38-2.15,6.6-4,11.92-5.25,15.58l-1.51,4.21a7.46,7.46,0,0,1-.6,1.45,6.94,6.94,0,0,1,.36-1.52c.34-1.11.76-2.53,1.29-4.29,1.19-3.85,2.85-9.18,4.87-15.7,4.05-13.27,9.7-31.62,13.92-52.35,2.11-10.37,3.51-20.33,4.47-29.46s2.81-17.53,6.88-23.4,9.22-8.94,13-9.89a16.22,16.22,0,0,1,4.47-.55A6.63,6.63,0,0,1,379.17,759.89Z"/><path class="cls-21" d="M290.94,890.41h46.51s-28.19,223.93-183.9,223.17l2-43.65S261.47,1063.36,290.94,890.41Z"/><path class="cls-22" d="M106.93,1043.11h15.51a1.83,1.83,0,0,1,1.83,1.83v45a0,0,0,0,1,0,0H105.1a0,0,0,0,1,0,0v-45A1.83,1.83,0,0,1,106.93,1043.11Z" transform="translate(-953.69 1162.44) rotate(-88.99)"/><g class="cls-14"><path d="M106.93,1043.11h15.51a1.83,1.83,0,0,1,1.83,1.83v45a0,0,0,0,1,0,0H105.1a0,0,0,0,1,0,0v-45A1.83,1.83,0,0,1,106.93,1043.11Z" transform="translate(-953.69 1162.44) rotate(-88.99)"/></g><path class="cls-23" d="M102.69,1077.87h22.76a3,3,0,0,1,3,3v43.79a0,0,0,0,1,0,0H99.65a0,0,0,0,1,0,0v-43.79A3,3,0,0,1,102.69,1077.87Z" transform="translate(-989.04 1195.99) rotate(-88.99)"/><rect class="cls-24" x="104.12" y="1072.41" width="48.95" height="18.49" transform="translate(-955.16 1191.22) rotate(-88.99)"/><rect class="cls-9" x="129.84" y="1054.3" width="29.86" height="66.46" transform="translate(-13.26 1.85) rotate(-0.7)"/><path class="cls-8" d="M159.77,1113.58c.06.56-6.57,1-14.67,1s-14.7-.26-14.7-.6,6.58-.61,14.69-.65c4.06,0,7.73,0,10.38.06l3.15.09A5.59,5.59,0,0,1,159.77,1113.58Z"/><path class="cls-8" d="M159.62,1101.62c.07.56-6.56,1-14.67,1s-14.7-.25-14.7-.6,6.58-.6,14.69-.65c4.06,0,7.73,0,10.39.07l3.14.09A5.59,5.59,0,0,1,159.62,1101.62Z"/><path class="cls-8" d="M160,1089.54c.06.56-6.57,1-14.67,1s-14.7-.26-14.7-.6,6.58-.61,14.69-.65c4.06,0,7.73,0,10.38.06l3.15.09A5.71,5.71,0,0,1,160,1089.54Z"/><path class="cls-8" d="M159.33,1077.69c.06.56-6.57,1-14.67,1s-14.7-.26-14.7-.6,6.58-.61,14.69-.65c4.06,0,7.73,0,10.39.06l3.14.09A5.59,5.59,0,0,1,159.33,1077.69Z"/><path class="cls-8" d="M159.77,1066.37c.06.56-6.57,1-14.67,1s-14.7-.25-14.7-.6,6.58-.6,14.69-.65c4.06,0,7.73,0,10.38.07l3.15.09A5.71,5.71,0,0,1,159.77,1066.37Z"/><path class="cls-9" d="M176.1,1111.38c.06,0,.11.38.14,1.2l0,1.39-.42-1.36a201.08,201.08,0,0,1-4.58-22c-1-6.45-1.74-12.32-2.13-16.58s-.49-6.92-.32-6.93.59,2.59,1.2,6.82,1.46,10.07,2.49,16.5c1.66,10.42,3.34,19.19,3.7,22.09l-.37,0C176,1111.75,176,1111.37,176.1,1111.38Z"/><path class="cls-9" d="M198.18,1107.13c-.33.11-3.79-10-7.74-22.61s-6.88-22.89-6.55-23,3.8,10,7.74,22.61S198.51,1107,198.18,1107.13Z"/><path class="cls-9" d="M224.26,1096.11c-.31.15-5.44-9.59-11.45-21.76s-10.65-22.17-10.34-22.32,5.44,9.59,11.46,21.76S224.57,1096,224.26,1096.11Z"/><path class="cls-9" d="M247.38,1078.83c-.28.21-6.92-8.3-14.84-19s-14.11-19.54-13.83-19.75,6.92,8.31,14.84,19S247.66,1078.63,247.38,1078.83Z"/><path class="cls-9" d="M267.56,1059.67c-.24.24-8-7.12-17.26-16.45s-16.62-17.09-16.37-17.33,8,7.12,17.26,16.45S267.81,1059.43,267.56,1059.67Z"/><path class="cls-9" d="M284.2,1036.68c-.1.15-2.38-1.11-6-3.22l-14.2-8.31-14.2-8.29c-3.63-2.13-5.85-3.5-5.77-3.65s2.45.94,6.19,2.88,8.86,4.74,14.41,8,10.5,6.33,14,8.63S284.29,1036.54,284.2,1036.68Z"/><path class="cls-9" d="M295.46,1013.39c-.09.16-2.29-.89-5.82-2.62s-8.42-4.1-13.86-6.62-10.42-4.69-14-6.27-5.82-2.57-5.76-2.74,2.4.55,6.1,1.92,8.75,3.43,14.21,6,10.31,5,13.75,7S295.54,1013.24,295.46,1013.39Z"/><path class="cls-9" d="M308.91,990.87c0,.16-2.59-.24-6.66-1.11s-9.67-2.26-15.77-4-11.57-3.61-15.48-5.06-6.27-2.47-6.21-2.63,2.52.57,6.5,1.8,9.45,2.92,15.54,4.69,11.62,3.27,15.63,4.37S309,990.69,308.91,990.87Z"/><path class="cls-9" d="M316.09,968.16c0,.34-10-.65-22.2-2.2s-22.08-3.09-22-3.44,10,.64,22.2,2.2S316.14,967.81,316.09,968.16Z"/><path class="cls-9" d="M323.72,946c0,.17-2.48.08-6.46-.2s-9.47-.77-15.53-1.38-11.53-1.23-15.49-1.74-6.39-.91-6.37-1.08,2.49-.08,6.47.2,9.47.77,15.52,1.38,11.52,1.22,15.47,1.73S323.73,945.8,323.72,946Z"/><path class="cls-9" d="M329.61,924.45c0,.34-10.35.95-23.14,1.35s-23.17.44-23.18.1,10.35-.95,23.14-1.35S329.6,924.1,329.61,924.45Z"/><path class="cls-9" d="M332,906.87c0,.16-2.4.59-6.33,1s-9.39.75-15.42.78-11.5-.26-15.44-.63-6.35-.76-6.34-.93,2.46-.09,6.4,0,9.37.29,15.37.26,11.43-.24,15.37-.41S332,906.69,332,906.87Z"/><path class="cls-11" d="M293,897.06a2.63,2.63,0,0,1,0,.61c0,.47,0,1.05,0,1.77,0,1.56,0,3.87-.15,6.83a179.76,179.76,0,0,1-2.95,24.93,188.32,188.32,0,0,1-10.44,35.74,191.37,191.37,0,0,1-21.93,40,190.86,190.86,0,0,1-31,33.44,188.23,188.23,0,0,1-30.61,21.2,177.47,177.47,0,0,1-22.73,10.67c-2.74,1.12-4.95,1.78-6.42,2.31l-1.69.55c-.38.12-.58.17-.59.14a2.35,2.35,0,0,1,.55-.26l1.64-.67c1.44-.6,3.62-1.33,6.33-2.52A192.1,192.1,0,0,0,289.06,931a196.79,196.79,0,0,0,3.33-24.79c.27-3,.27-5.25.39-6.8.05-.72.08-1.3.11-1.77A2,2,0,0,1,293,897.06Z"/><path class="cls-25" d="M508.51,636.08s-25.75-34.82-85.3-29.66c0,0,60.62-46.56,25-94.4,0,0,76.55,22.61,77.42-73.07,0,0,13.92,88.72,86.12,63.5,0,0,5.13,70.49,55.1,57.44-24.18,23.82-47.72,44.77-42.92,75.16"/><g class="cls-26"><path class="cls-11" d="M508.51,636.08s-25.75-34.82-85.3-29.66c0,0,60.62-46.56,25-94.4,0,0,76.55,22.61,77.42-73.07,0,0,13.92,88.72,86.12,63.5,0,0,5.13,70.49,55.1,57.44-24.18,23.82-47.72,44.77-42.92,75.16"/></g><path class="cls-27" d="M508.51,636.08s-.61-40.61-48.45-36.47c0,0,44.49-25.65,15.85-64.08,0,0,61.49,18.17,62.18-58.69,0,0,11.18,71.27,69.18,51,0,0-6.92,51.7,33.23,41.22q-29.14,28.7-23.45,65.29"/><g class="cls-28"><path class="cls-11" d="M508.51,636.08s-.61-40.61-48.45-36.47c0,0,44.49-25.65,15.85-64.08,0,0,61.49,18.17,62.18-58.69,0,0,11.18,71.27,69.18,51,0,0-6.92,51.7,33.23,41.22q-29.14,28.7-23.45,65.29"/></g><path class="cls-29" d="M587.06,366.7a7.7,7.7,0,0,1-.58,1.52c-.48,1.08-1.1,2.49-1.88,4.23s-1.85,4.07-2.92,6.72-2.42,5.6-3.64,9-2.7,7-4,11-2.7,8.3-4.1,12.84c-2.61,9.13-5.11,19.27-7.08,30.05s-3.11,21.17-3.84,30.64c-.28,4.73-.6,9.24-.64,13.46s-.13,8.16-.08,11.75.18,6.84.28,9.69.24,5.31.4,7.31.21,3.44.28,4.62a8.82,8.82,0,0,1,0,1.63,7,7,0,0,1-.27-1.6c-.13-1.18-.31-2.71-.52-4.61s-.47-4.45-.61-7.31-.44-6.11-.47-9.71-.19-7.55-.07-11.79.28-8.76.53-13.52a274.1,274.1,0,0,1,11-60.93c1.43-4.55,2.74-8.89,4.22-12.86s2.82-7.68,4.18-11,2.67-6.32,3.82-8.94,2.21-4.85,3.12-6.64l2.1-4.14A9,9,0,0,1,587.06,366.7Z"/><path class="cls-30" d="M415.25,350.22c-.28.3-5.56-6.1-14.4-10.78s-17-5.63-17-6c0-.14,2.08-.13,5.35.51a45.19,45.19,0,0,1,22.62,12.14C414.21,348.42,415.37,350.13,415.25,350.22Z"/><path class="cls-31" d="M433.69,454.72a6.2,6.2,0,0,1,1,.94l2.67,2.87c2.32,2.49,5.54,6.22,9.38,10.94S455,480,459.61,486.55s9.4,14.05,14.07,22.08,8.69,15.94,12.14,23.21,6.24,14,8.4,19.67S498,561.84,499,565.09c.46,1.52.84,2.75,1.15,3.74a5.73,5.73,0,0,1,.32,1.33,5.46,5.46,0,0,1-.56-1.25c-.36-1-.82-2.18-1.37-3.66-1.15-3.2-2.9-7.79-5.18-13.42s-5.17-12.25-8.62-19.5-7.56-15.05-12.18-23.07-9.42-15.43-13.94-22.06S449.8,474.79,446.05,470s-6.85-8.59-9.06-11.17l-2.49-3A5.92,5.92,0,0,1,433.69,454.72Z"/><path class="cls-32" d="M598.74,467a5.08,5.08,0,0,1-.5,1.1l-1.62,3c-.73,1.29-1.61,2.88-2.54,4.77s-2.09,4-3.17,6.41c-2.3,4.78-4.73,10.6-7.12,17.18a185.18,185.18,0,0,0-10,44.34c-.65,7-.95,13.28-.92,18.58-.07,2.65.07,5,.12,7.15s.14,3.92.24,5.4.13,2.49.18,3.41a4.4,4.4,0,0,1,0,1.2,4.43,4.43,0,0,1-.23-1.17c-.11-.92-.25-2-.41-3.4s-.36-3.29-.46-5.41-.31-4.51-.3-7.17a168.49,168.49,0,0,1,.66-18.7,174.3,174.3,0,0,1,10-44.62,170.11,170.11,0,0,1,7.42-17.17c1.13-2.42,2.34-4.5,3.35-6.36s1.93-3.43,2.73-4.69L598,468A4.26,4.26,0,0,1,598.74,467Z"/><path class="cls-33" d="M645.88,476.28c.12.17-2,1.73-5.2,4.5a89.19,89.19,0,0,0-20.44,25.68c-2,3.73-3,6.15-3.23,6.07s.63-2.59,2.44-6.47a73,73,0,0,1,20.67-26C643.5,477.47,645.8,476.16,645.88,476.28Z"/><path class="cls-34" d="M445.44,537.51c.08-.12,2.41,1.15,5.87,3.67a83.2,83.2,0,0,1,22.27,24.69c2.15,3.7,3.18,6.15,3,6.22s-1.47-2.21-3.79-5.75a107.44,107.44,0,0,0-10.07-13.1,109.45,109.45,0,0,0-12-11.36C447.48,539.21,445.33,537.68,445.44,537.51Z"/><path class="cls-35" d="M433.28,515.18c-.19.34-5.09-2.4-11.71-4.08s-12.22-1.71-12.22-2.09,5.72-.9,12.53.88S433.46,514.94,433.28,515.18Z"/><path class="cls-36" d="M383.9,440a16.18,16.18,0,0,1,1.57-4l-2.17-3.32,4.56-4.71,3.39,2.06a15.94,15.94,0,0,1,3.92-1.7l.82-3.88,6.55-.11.94,3.85a16.21,16.21,0,0,1,4,1.58l3.32-2.17,4.71,4.56-2.06,3.39a15.94,15.94,0,0,1,1.7,3.92l3.88.81.11,6.56-3.85.94a15.82,15.82,0,0,1-1.58,4l2.17,3.31-4.56,4.72-3.39-2.06a16.15,16.15,0,0,1-3.92,1.7l-.81,3.88-6.56.1-.94-3.84a16.14,16.14,0,0,1-4-1.58l-3.32,2.17-4.71-4.56,2.05-3.39a16.32,16.32,0,0,1-1.7-3.92l-3.88-.81-.1-6.56,3.85-.94Zm8.64,3.72a7,7,0,1,0,6.92-7.15A7,7,0,0,0,392.54,443.76Z"/><path class="cls-37" d="M658.88,617.41a12,12,0,0,1,1.17-2.93L658.44,612l3.37-3.48,2.5,1.52a11.88,11.88,0,0,1,2.9-1.25l.6-2.87,4.83-.07.7,2.84a11.63,11.63,0,0,1,2.93,1.16l2.45-1.6,3.48,3.36-1.52,2.5a11.88,11.88,0,0,1,1.25,2.9l2.87.6.07,4.84-2.84.69a11.48,11.48,0,0,1-1.16,2.93l1.6,2.45L679.11,632l-2.5-1.52a12.31,12.31,0,0,1-2.9,1.26l-.6,2.86-4.84.08-.69-2.84a11.89,11.89,0,0,1-2.93-1.17l-2.45,1.61-3.48-3.37,1.52-2.5a12.31,12.31,0,0,1-1.26-2.9l-2.86-.6-.08-4.83,2.84-.7Zm6.38,2.75a5.2,5.2,0,1,0,5.11-5.28A5.19,5.19,0,0,0,665.26,620.16Z"/><rect class="cls-3" x="597.96" y="417.95" width="25.03" height="11.32" transform="translate(-34.12 793.24) rotate(-64.59)"/><path class="cls-9" d="M600,432.49a25.81,25.81,0,0,1,3,1.17c1.81.77,4.37,1.87,7.46,3.28l-.61.21c2.69-5.89,6.42-13.9,10.59-22.68-.26-.75.36,1,.3.83h0l0,0-.08,0-.17-.08L620,415l-.67-.32L618,414l-2.6-1.24-4.94-2.38.79-.28c-3.11,6.45-5.87,12-7.89,15.94-.94,1.83-1.74,3.38-2.4,4.68a13.91,13.91,0,0,1-1,1.74,6.64,6.64,0,0,1,.61-1.63l2-4.7c1.79-4,4.4-9.83,7.54-16.54l.25-.53.55.25,5,2.33,2.61,1.23,1.32.63.67.32.34.16.17.08.08,0,0,0h0c-.06-.18.56,1.58.3.83-4.17,8.79-8,16.74-10.9,22.54l-.2.41-.4-.2c-3.23-1.59-5.79-2.92-7.5-3.83A16.57,16.57,0,0,1,600,432.49Z"/><path class="cls-3" d="M620,402.7a10.44,10.44,0,0,0-13.92,4.95l18.87,9A10.45,10.45,0,0,0,620,402.7Z"/><path class="cls-9" d="M620,402.7c0-.05.43.07,1.15.43a9.78,9.78,0,0,1,2.7,2.15,10.58,10.58,0,0,1,2.38,4.78,10.81,10.81,0,0,1-.76,6.8l-.24.53-.53-.25-9.45-4.44-9.42-4.53-.53-.25.26-.52a10.85,10.85,0,0,1,4.79-4.89,10.48,10.48,0,0,1,5.21-1.16,10,10,0,0,1,3.38.72c.72.34,1.08.58,1.06.63s-1.62-.71-4.44-.65a10.17,10.17,0,0,0-9,5.85l-.27-.77,9.45,4.44,9.42,4.53-.77.27a10,10,0,0,0,.85-6.13,10.15,10.15,0,0,0-2-4.51C621.53,403.5,619.86,402.86,620,402.7Z"/><path class="cls-3" d="M620.2,408.67a6.59,6.59,0,0,0-2.07-6.72"/><path class="cls-9" d="M618.13,402c.16-.3,1.93.66,2.6,2.88s-.23,4-.53,3.84-.09-1.69-.66-3.48S617.91,402.23,618.13,402Z"/><path class="cls-9" d="M608.66,413.05c.2-.29,2.54.95,5.5,2.27s5.42,2.26,5.33,2.61-2.79-.09-5.85-1.47S608.47,413.33,608.66,413.05Z"/><path class="cls-9" d="M607.4,415.71c.2-.3,2.54.94,5.49,2.26s5.43,2.27,5.34,2.61-2.79-.08-5.85-1.47S607.21,416,607.4,415.71Z"/><path class="cls-9" d="M606.14,418.36c.2-.29,2.54.95,5.49,2.27s5.43,2.26,5.34,2.61-2.79-.09-5.85-1.47S606,418.64,606.14,418.36Z"/><path class="cls-9" d="M604.88,421c.2-.3,2.54.94,5.49,2.26s5.43,2.27,5.34,2.61-2.79-.08-5.85-1.47S604.69,421.29,604.88,421Z"/><path class="cls-9" d="M603.62,423.67c.2-.29,2.54.95,5.49,2.27s5.43,2.26,5.34,2.61-2.79-.09-5.85-1.47S603.43,424,603.62,423.67Z"/><path class="cls-9" d="M602.36,426.33c.2-.3,2.53.94,5.49,2.26s5.43,2.27,5.34,2.61-2.8-.08-5.85-1.47S602.17,426.6,602.36,426.33Z"/><path class="cls-9" d="M601.1,429c.19-.29,2.53.95,5.49,2.27s5.43,2.26,5.34,2.61-2.8-.09-5.86-1.47S600.91,429.26,601.1,429Z"/><rect class="cls-3" x="352.28" y="609.49" width="25.03" height="11.32" transform="translate(-221.54 205.64) rotate(-24.4)"/><path class="cls-9" d="M378.53,615.14a27,27,0,0,1-1.5-2.81c-.89-1.76-2.14-4.25-3.59-7.31l.6.22c-5.85,2.77-13.87,6.48-22.73,10.5-.27.74.38-1,.31-.83h0v0l0,0,0,.09.08.17.15.34.31.67.6,1.34,1.19,2.63,2.24,5-.78-.29c6.53-2.92,12.2-5.35,16.3-7.09l4.86-2a11.42,11.42,0,0,1,1.88-.69A7.62,7.62,0,0,1,377,616l-4.59,2.26c-4,1.93-9.71,4.67-16.44,7.77l-.54.25-.25-.55c-.73-1.6-1.5-3.26-2.29-5l-1.19-2.62-.61-1.34-.31-.68-.15-.33-.08-.17,0-.09,0,0v0h0l.31-.83c8.85-4,16.92-7.61,22.86-10.18l.43-.19.17.41c1.44,3.3,2.53,6,3.26,7.77A16.69,16.69,0,0,1,378.53,615.14Z"/><path class="cls-3" d="M344,625a10.45,10.45,0,0,0,13.83,5.2l-8.63-19A10.46,10.46,0,0,0,344,625Z"/><path class="cls-9" d="M344,625c-.05,0-.28-.34-.6-1.07a9.74,9.74,0,0,1-.67-3.39,10.51,10.51,0,0,1,1.26-5.18,10.81,10.81,0,0,1,5-4.71l.52-.25.25.54c1.35,2.95,2.82,6.14,4.36,9.49s2.94,6.56,4.27,9.53l.24.54-.53.22a10.87,10.87,0,0,1-6.82.65,10.59,10.59,0,0,1-4.73-2.47,9.89,9.89,0,0,1-2.11-2.74c-.34-.72-.46-1.14-.41-1.16s.78,1.58,3,3.36a10.3,10.3,0,0,0,4.48,2.06,10.07,10.07,0,0,0,6.14-.74l-.28.76-4.36-9.5c-1.51-3.36-2.94-6.56-4.27-9.53l.76.29a10,10,0,0,0-4.61,4.13,10.14,10.14,0,0,0-1.4,4.72C343.37,623.38,344.23,624.94,344,625Z"/><path class="cls-3" d="M347.72,620.29a6.6,6.6,0,0,0-2.76,6.47"/><path class="cls-9" d="M345,626.76c-.31.12-1-1.75-.13-3.88s2.76-2.9,2.89-2.59-1,1.35-1.74,3.08S345.31,626.68,345,626.76Z"/><path class="cls-9" d="M359.36,624.38c-.34.1-1.33-2.36-2.73-5.27s-2.69-5.23-2.4-5.44,2.08,1.87,3.53,4.9S359.68,624.3,359.36,624.38Z"/><path class="cls-9" d="M362,623.17c-.34.1-1.33-2.36-2.74-5.27s-2.68-5.24-2.39-5.44,2.08,1.86,3.52,4.9S362.36,623.08,362,623.17Z"/><path class="cls-9" d="M364.71,622c-.34.09-1.32-2.36-2.73-5.28s-2.68-5.23-2.39-5.44,2.08,1.87,3.52,4.9S365,621.87,364.71,622Z"/><path class="cls-9" d="M367.39,620.74c-.34.1-1.33-2.36-2.73-5.27s-2.69-5.24-2.4-5.44,2.08,1.87,3.53,4.9S367.71,620.65,367.39,620.74Z"/><path class="cls-9" d="M370.07,619.53c-.34.1-1.33-2.36-2.74-5.28s-2.68-5.23-2.39-5.43,2.08,1.86,3.52,4.89S370.39,619.44,370.07,619.53Z"/><path class="cls-9" d="M372.74,618.31c-.34.1-1.32-2.36-2.73-5.27s-2.68-5.23-2.39-5.44,2.08,1.87,3.52,4.9S373.07,618.23,372.74,618.31Z"/><path class="cls-9" d="M375.42,617.1c-.34.1-1.33-2.36-2.73-5.28s-2.69-5.23-2.4-5.43,2.08,1.86,3.53,4.89S375.74,617,375.42,617.1Z"/><path class="cls-38" d="M423.54,322.59s29.07,28.73,36.3,46.64c6.89,17.06,11.45,32.95,11.45,32.95s7.49-13.11,15.92,0S535.46,574.46,542,634.39h25.37S555.57,534.21,550,523s-10.3-15-10.3-15-6.56-42.13-11.24-48.69a31.61,31.61,0,0,0-10.3-9.36s-8.43-45.88-20.6-55.25S476,390,476,390,468.23,341,423.54,322.59Z"/><path class="cls-8" d="M661.53,535.22c.07.39-7.92,1.6-16.86,5.7s-15.14,9.26-15.39,9c-.1-.12,1.31-1.57,3.91-3.56a58,58,0,0,1,23.09-10.49C659.48,535.17,661.5,535.07,661.53,535.22Z"/><path class="cls-8" d="M660.54,530.19c.11.38-8,2.52-16.93,7.52s-15.09,10.67-15.35,10.37c-.11-.11,1.28-1.69,3.85-3.92a66.17,66.17,0,0,1,23.07-12.78C658.42,530.38,660.5,530,660.54,530.19Z"/><path class="cls-8" d="M655.64,542.45c0,.38-5.3.46-11.51,2.25s-10.77,4.45-11,4.12,4.2-3.52,10.63-5.32S655.68,542.14,655.64,542.45Z"/><path class="cls-9" d="M599.61,634.13c-4.23-33.62,6.8-73,33.68-91.88l6.41,5.21s-33.41,19.87-31,86.93"/><path class="cls-8" d="M461.66,585.73c.1.39-6.25,1.61-12.88,5.74s-10.63,9.17-10.93,8.91,3.36-5.77,10.28-10S461.67,585.43,461.66,585.73Z"/><path class="cls-8" d="M461,582.74c.1.35-5.84,2.36-13.07,5.06s-13,5.07-13.19,4.74,5.46-3.2,12.75-5.91S460.92,582.42,461,582.74Z"/><path class="cls-9" d="M535,642.43l-11.61-3a26.48,26.48,0,0,0-3.12-20.35,25.77,25.77,0,0,0-5.66-6.35c-1.2,7.59-6,14.29-12.74,17.09a18.83,18.83,0,0,1-16-1,16.65,16.65,0,0,1-8.72-11.35c-1.43-7.25,2.4-15.17,9.3-19.26a23.79,23.79,0,0,1,8.79-3q-.42-.36-.87-.69c-10.12-7.73-25.68-8.16-36.2-1l-6.76-9.92c14.84-10.12,36-9.55,50.25,1.36A35.48,35.48,0,0,1,512.1,597.5,38,38,0,0,1,535,642.43Zm-35.77-35.51a13,13,0,0,0-6.63,1.61c-2.48,1.46-4.08,4.37-3.64,6.61a5,5,0,0,0,2.62,3.08,6.93,6.93,0,0,0,5.69.49c3.63-1.51,6.07-6.34,5.55-11a3.78,3.78,0,0,0-.06-.47A19.88,19.88,0,0,0,499.19,606.92Z"/><path class="cls-39" d="M437.5,419.51a21.09,21.09,0,0,1,3.22,1.71c2,1.15,4.91,3,8.36,5.37a145.14,145.14,0,0,1,11.62,9.06,148,148,0,0,1,24.18,26.73,143.25,143.25,0,0,1,7.86,12.48c2,3.66,3.57,6.7,4.51,8.85a20.07,20.07,0,0,1,1.37,3.37,19.78,19.78,0,0,1-1.81-3.16c-1.07-2.07-2.71-5-4.84-8.62s-4.82-7.76-8-12.25-7-9.2-11.27-13.94a174.31,174.31,0,0,0-12.74-12.59c-4.14-3.64-8-6.75-11.38-9.21s-6.14-4.41-8.1-5.68A20.23,20.23,0,0,1,437.5,419.51Z"/><path class="cls-9" d="M384.34,687h14.59a0,0,0,0,1,0,0V808.23a0,0,0,0,1,0,0H384.34a9,9,0,0,1-9-9V695.94A9,9,0,0,1,384.34,687Z"/><path class="cls-9" d="M746,687H760.7a8.88,8.88,0,0,1,8.88,8.88V799.35a8.88,8.88,0,0,1-8.88,8.88H746a0,0,0,0,1,0,0V687A0,0,0,0,1,746,687Z"/><rect class="cls-40" x="392.73" y="663.3" width="358.61" height="264.02" rx="14.12"/><path class="cls-11" d="M617.66,691.36a82.18,82.18,0,0,0-82.18,82.18H699.84A82.18,82.18,0,0,0,617.66,691.36Z"/><path class="cls-3" d="M683.86,769.54c3.45,0,6.58,0,8.84,0a18.48,18.48,0,0,1,3.66.23,18.09,18.09,0,0,1-3.66.27c-2.26.06-5.39.1-8.84.1l-8.84-.08-2.68-.07a4.34,4.34,0,0,1-1-.09,3.41,3.41,0,0,1,1-.1l2.68-.1Z"/><path class="cls-3" d="M678.12,744.71c6.23-3,11.42-5.07,11.6-4.69s-4.79,3-11.09,5.8-11.5,4.92-11.6,4.69S671.89,747.68,678.12,744.71Z"/><path class="cls-3" d="M662.7,724.39c4.56-5.18,8.5-9.17,8.81-8.89s-3.23,4.62-7.9,9.71-8.61,9.07-8.81,8.89S658.15,729.58,662.7,724.39Z"/><path class="cls-3" d="M640.72,711.42c2.34-6.5,4.55-11.65,4.93-11.51s-1.31,5.49-3.79,11.93-4.68,11.59-4.93,11.5S638.37,717.91,640.72,711.42Z"/><path class="cls-3" d="M615.53,707.14c-.07-6.91.21-12.5.61-12.51s.68,5.6.61,12.51-.34,12.5-.61,12.5S615.6,714,615.53,707.14Z"/><path class="cls-3" d="M590.42,711.84c-2.48-6.45-4.17-11.79-3.79-11.93s2.59,5,4.94,11.5,4,11.84,3.78,11.93S592.89,718.28,590.42,711.84Z"/><path class="cls-3" d="M568.66,725.21c-4.67-5.08-8.2-9.43-7.9-9.71s4.26,3.71,8.81,8.9,8.09,9.53,7.9,9.71S573.33,730.3,568.66,725.21Z"/><path class="cls-3" d="M553.64,745.83c-6.3-2.82-11.26-5.42-11.09-5.8s5.37,1.72,11.61,4.69,11.19,5.57,11.09,5.8S559.94,748.65,553.64,745.83Z"/><path class="cls-3" d="M548.42,770.15c-3.46,0-6.58,0-8.84-.1a18.15,18.15,0,0,1-3.67-.27,18.65,18.65,0,0,1,3.67-.23c2.26,0,5.39,0,8.84,0l8.84.17,2.67.1a3.45,3.45,0,0,1,1,.1,4.39,4.39,0,0,1-1,.09l-2.68.07Z"/><path class="cls-11" d="M480.63,705.76a10.91,10.91,0,1,1-10.91-10.91A10.91,10.91,0,0,1,480.63,705.76Z"/><path class="cls-8" d="M480.63,738.64a10.91,10.91,0,1,1-10.91-10.91A10.91,10.91,0,0,1,480.63,738.64Z"/><path class="cls-9" d="M687.36,904.55s0-.7-.05-2,0-3.33,0-5.89c0-5.19-.06-12.77-.11-22.52-.06-19.5-.15-47.64-.25-82.32l.46.47-223.65.16h0l.62-.63c0,39.77,0,77.92,0,112.77l-.59-.59,160.62.29,46.34.16,12.39.07,3.21,0,1.11,0s-.34,0-1,0l-3.14,0-12.27.08-46.2.16-161,.28h-.59v-.59c0-34.85,0-73,0-112.77v-.62h.65l223.65.16h.47v.46c-.11,34.8-.19,63-.25,82.61-.05,9.7-.09,17.24-.12,22.41,0,2.53,0,4.46-.05,5.81S687.36,904.55,687.36,904.55Z"/><path class="cls-9" d="M429.73,926.81h284.6a0,0,0,0,1,0,0V937a6.23,6.23,0,0,1-6.23,6.23H436a6.23,6.23,0,0,1-6.23-6.23V926.81A0,0,0,0,1,429.73,926.81Z"/><g class="cls-14"><path d="M663.44,807.61a6.77,6.77,0,0,0,4.66,7.14,7.48,7.48,0,0,0,8.13-3,8.38,8.38,0,0,0,.11-8.8,8.28,8.28,0,0,1-1.88,5.63,6.14,6.14,0,0,1-5.41,2.13,4.89,4.89,0,0,1-4.07-3.94"/></g><path class="cls-3" d="M676.27,804.94a6.63,6.63,0,1,1-6.63-6.64A6.63,6.63,0,0,1,676.27,804.94Z"/><path class="cls-9" d="M676.27,804.94a11.32,11.32,0,0,1-.44-1.56,6.61,6.61,0,0,0-2.45-3.36,6.1,6.1,0,1,0,0,9.84,6.69,6.69,0,0,0,2.45-3.36c.31-1,.34-1.57.44-1.56s.21.59,0,1.68a6.58,6.58,0,0,1-2.38,3.94,7.06,7.06,0,0,1-6.74,1.15,7.17,7.17,0,0,1,0-13.54,7,7,0,0,1,6.74,1.14,6.6,6.6,0,0,1,2.38,4C676.48,804.34,676.34,804.94,676.27,804.94Z"/><path class="cls-9" d="M672.7,802.1c.12.34-1.46,1.15-2.91,2.68s-2.24,3.11-2.58,3,0-2.11,1.68-3.87S672.62,801.78,672.7,802.1Z"/><path class="cls-9" d="M672.7,807c-.3.2-1.41-1-3-2.1s-3.15-1.68-3.08-2,1.92-.27,3.78,1S673,806.84,672.7,807Z"/><g class="cls-14"><path d="M666.55,889.68a6.79,6.79,0,0,0,4.66,7.15,7.46,7.46,0,0,0,8.13-3,8.36,8.36,0,0,0,.12-8.79,8.35,8.35,0,0,1-1.88,5.62,6.13,6.13,0,0,1-5.41,2.13,4.88,4.88,0,0,1-4.07-3.94"/></g><circle class="cls-3" cx="672.75" cy="887.01" r="6.63"/><path class="cls-9" d="M679.39,887c-.11,0-.14-.59-.45-1.56a6.66,6.66,0,0,0-2.44-3.36,6.23,6.23,0,0,0-5.81-.77,6.07,6.07,0,0,0,0,11.38,6.23,6.23,0,0,0,5.81-.77,6.58,6.58,0,0,0,2.44-3.36c.31-1,.34-1.56.45-1.56a2.83,2.83,0,0,1,0,1.68,6.63,6.63,0,0,1-2.38,3.95,7,7,0,0,1-6.73,1.14,7.17,7.17,0,0,1,0-13.54,7,7,0,0,1,6.73,1.15,6.58,6.58,0,0,1,2.38,3.94C679.6,886.42,679.45,887,679.39,887Z"/><path class="cls-9" d="M675.81,884.17c.12.34-1.45,1.16-2.9,2.69s-2.24,3.1-2.59,3,0-2.11,1.69-3.86S675.74,883.85,675.81,884.17Z"/><path class="cls-9" d="M675.81,889.08c-.3.2-1.4-1-3-2.1s-3.16-1.68-3.09-2,1.93-.27,3.79,1S676.1,888.92,675.81,889.08Z"/><g class="cls-14"><path d="M473.61,807.51a6.76,6.76,0,0,0,4.65,7.14,7.49,7.49,0,0,0,8.14-3,8.38,8.38,0,0,0,.11-8.8,8.33,8.33,0,0,1-1.88,5.63,6.15,6.15,0,0,1-5.41,2.13,4.89,4.89,0,0,1-4.07-3.94"/></g><circle class="cls-3" cx="479.81" cy="804.84" r="6.63"/><path class="cls-9" d="M486.44,804.84c-.11,0-.13-.59-.44-1.56a6.61,6.61,0,0,0-2.45-3.36,6.21,6.21,0,0,0-5.81-.77,6.08,6.08,0,0,0,0,11.38,6.23,6.23,0,0,0,5.81-.77A6.69,6.69,0,0,0,486,806.4c.31-1,.33-1.57.44-1.56s.21.59,0,1.68a6.63,6.63,0,0,1-2.38,3.94,7,7,0,0,1-6.74,1.15,7.17,7.17,0,0,1,0-13.54,7,7,0,0,1,6.74,1.14,6.68,6.68,0,0,1,2.38,3.95A2.87,2.87,0,0,1,486.44,804.84Z"/><path class="cls-9" d="M482.86,802c.13.34-1.45,1.15-2.9,2.68s-2.24,3.11-2.58,3,0-2.11,1.68-3.87S482.79,801.68,482.86,802Z"/><path class="cls-9" d="M482.86,806.9c-.29.2-1.4-1-3-2.1s-3.15-1.68-3.08-2,1.92-.26,3.78,1S483.16,806.74,482.86,806.9Z"/><g class="cls-14"><path d="M472.2,888.87a6.79,6.79,0,0,0,4.65,7.15,7.51,7.51,0,0,0,8.14-3,8.36,8.36,0,0,0,.11-8.79,8.27,8.27,0,0,1-1.88,5.62,6.14,6.14,0,0,1-5.41,2.13,4.89,4.89,0,0,1-4.07-3.94"/></g><circle class="cls-3" cx="478.4" cy="886.2" r="6.63"/><path class="cls-9" d="M485,886.2c-.11,0-.13-.59-.44-1.56a6.65,6.65,0,0,0-2.45-3.36,6.23,6.23,0,0,0-5.81-.77,6.08,6.08,0,0,0,0,11.38,6.23,6.23,0,0,0,5.81-.77,6.65,6.65,0,0,0,2.45-3.36c.31-1,.33-1.56.44-1.56s.21.59,0,1.68a6.58,6.58,0,0,1-2.38,3.94,7,7,0,0,1-6.74,1.15,7.17,7.17,0,0,1,0-13.54,7,7,0,0,1,6.74,1.15,6.58,6.58,0,0,1,2.38,3.94A2.87,2.87,0,0,1,485,886.2Z"/><path class="cls-9" d="M481.46,883.36c.12.34-1.46,1.16-2.91,2.68s-2.24,3.11-2.58,3,0-2.11,1.68-3.87S481.38,883,481.46,883.36Z"/><path class="cls-9" d="M481.46,888.27c-.3.19-1.41-1-3-2.1s-3.15-1.69-3.08-2,1.92-.26,3.78,1S481.75,888.1,481.46,888.27Z"/><g class="cls-14"><path d="M463.69,905.16c26,5.65,56.31,5.86,84.37,4.5,13.5-.66,28.31-1.51,39.1,6.62,2.37,1.79,5.14,4.11,7.92,3.08,4-1.51,4.19-8.9,8.51-9,2.16-.08,3.8,2,4.5,4s.87,4.29,2,6.15,3.73,3.12,5.44,1.8c2.74-2.1-.41-6.58.62-9.87s5.92-3.68,9.23-2.33,6.54,3.69,10.07,3.17c2.54-.38,4.6-2.16,6.79-3.5,6.32-3.84,14.11-4.08,21.5-4.21,7.8-.13,15.85-.87,23.65-1Z"/></g><path class="cls-9" d="M642.56,820.47a5.09,5.09,0,0,1-1.22.43,28.89,28.89,0,0,0-3.48,1.16,53.43,53.43,0,0,0-11.71,6.64c-4.68,3.27-9.85,7.78-16.4,11.77a37.82,37.82,0,0,1-11.11,4.61c-4.12,1-8.49.83-12.82,1-8.75-.09-16.43,3.58-23.05,7.11s-12.68,6.82-17.41,10a62.84,62.84,0,0,0-10.44,8.54c-2.21,2.3-3.26,3.73-3.36,3.66a5.85,5.85,0,0,1,.69-1.09,32,32,0,0,1,2.32-2.9,56.65,56.65,0,0,1,10.29-8.94,187,187,0,0,1,17.36-10.3,78.29,78.29,0,0,1,10.86-5.06,37.67,37.67,0,0,1,12.7-2.29c4.4-.12,8.67.07,12.6-.9a37.56,37.56,0,0,0,10.79-4.41c6.45-3.86,11.69-8.3,16.48-11.5a49,49,0,0,1,12-6.37,20.44,20.44,0,0,1,3.59-1A4.9,4.9,0,0,1,642.56,820.47Z"/><path class="cls-9" d="M585.66,839.48c0,.15-2.71-.14-7-1.07a106,106,0,0,1-31.49-12.64c-3.72-2.27-5.86-3.92-5.77-4s2.41,1.22,6.21,3.28a142.87,142.87,0,0,0,31.26,12.55C583.08,838.69,585.7,839.29,585.66,839.48Z"/><path class="cls-41" d="M621.77,761.12c1.82-1,55.77-18.33,55.77-18.33L626,771.7Z"/><path class="cls-9" d="M616.14,755.3a18.24,18.24,0,0,0-18.24,18.24h36.47A18.24,18.24,0,0,0,616.14,755.3Z"/><path class="cls-9" d="M432.71,926.81c-.34,0-.62-58.62-.62-130.92s.28-130.94.62-130.94.63,58.61.63,130.94S433.06,926.81,432.71,926.81Z"/><path class="cls-9" d="M718,926.81c-.34,0-.62-58.62-.62-130.92S717.66,665,718,665s.63,58.61.63,130.94S718.35,926.81,718,926.81Z"/><circle class="cls-9" cx="420.74" cy="697.65" r="2.8"/><circle class="cls-9" cx="420.74" cy="750.19" r="2.8"/><circle class="cls-9" cx="420.74" cy="802.72" r="2.8"/><circle class="cls-9" cx="420.74" cy="855.26" r="2.8"/><circle class="cls-9" cx="420.74" cy="907.8" r="2.8"/><circle class="cls-9" cx="732.67" cy="697.65" r="2.8"/><circle class="cls-9" cx="732.67" cy="750.19" r="2.8"/><circle class="cls-9" cx="732.67" cy="802.72" r="2.8"/><circle class="cls-9" cx="732.67" cy="855.26" r="2.8"/><circle class="cls-9" cx="732.67" cy="907.8" r="2.8"/><rect class="cls-8" x="502.22" y="634.39" width="122.66" height="28.91"/><path class="cls-9" d="M511.07,663.3c-.35,0-.63-6.25-.63-13.95s.28-14,.63-14,.62,6.24.62,14S511.41,663.3,511.07,663.3Z"/><path class="cls-9" d="M523.66,663.3c-.34,0-.62-6.25-.62-13.95s.28-14,.62-14,.63,6.24.63,14S524,663.3,523.66,663.3Z"/><path class="cls-9" d="M536.25,663.3c-.34,0-.62-6.25-.62-13.95s.28-14,.62-14,.63,6.24.63,14S536.6,663.3,536.25,663.3Z"/><path class="cls-9" d="M548.85,663.3c-.35,0-.63-6.25-.63-13.95s.28-14,.63-14,.62,6.24.62,14S549.19,663.3,548.85,663.3Z"/><path class="cls-9" d="M561.44,663.3c-.34,0-.62-6.25-.62-13.95s.28-14,.62-14,.63,6.24.63,14S561.79,663.3,561.44,663.3Z"/><path class="cls-9" d="M574,663.3c-.35,0-.63-6.25-.63-13.95s.28-14,.63-14,.62,6.24.62,14S574.38,663.3,574,663.3Z"/><path class="cls-9" d="M586.63,663.3c-.35,0-.62-6.25-.62-13.95s.27-14,.62-14,.63,6.24.63,14S587,663.3,586.63,663.3Z"/><path class="cls-9" d="M599.22,663.3c-.34,0-.62-6.25-.62-13.95s.28-14,.62-14,.63,6.24.63,14S599.57,663.3,599.22,663.3Z"/><path class="cls-9" d="M611.82,663.3c-.35,0-.63-6.25-.63-13.95s.28-14,.63-14,.62,6.24.62,14S612.16,663.3,611.82,663.3Z"/><g class="cls-14"><path d="M769.58,726c3,15,5.72,29.19,8.69,44.23a65.48,65.48,0,0,1-8.69,0c-.07-14.4.07-29.8,0-44.2"/></g><path class="cls-11" d="M401,691.47c.34,0,0,44.83-.82,100.11s-1.73,100.1-2.07,100.1,0-44.82.82-100.12S400.68,691.47,401,691.47Z"/><path class="cls-11" d="M453.21,897.85c-.34,0-.62-22.32-.62-49.85s.28-49.86.62-49.86.63,22.32.63,49.86S453.56,897.85,453.21,897.85Z"/><path class="cls-11" d="M689,671.38c0,.35-55,.63-122.89.63s-122.9-.28-122.9-.63,55-.62,122.9-.62S689,671,689,671.38Z"/><path class="cls-9" d="M1050.28,1121.4c0,.34-228.52.62-510.35.62s-510.4-.28-510.4-.62,228.47-.63,510.4-.63S1050.28,1121.05,1050.28,1121.4Z"/><path class="cls-42" d="M773.66,196.23c0-20.57,16-35.79,37.86-35.79s37.87,15.13,37.87,35.79S833.28,232,811.52,232,773.66,216.8,773.66,196.23Zm59.52,0c0-13.15-9.29-22.15-21.66-22.15s-21.65,9-21.65,22.15,9.3,22.15,21.65,22.15S833.18,209.38,833.18,196.23Z"/><path class="cls-42" d="M856.4,204.24c0-16,12.35-27.39,29.26-27.39s29.17,11.37,29.17,27.39-12.26,27.39-29.17,27.39S856.4,220.26,856.4,204.24Zm42.81,0c0-9.19-5.84-14.73-13.55-14.73S872,195.05,872,204.24,878,219,885.66,219,899.21,213.43,899.21,204.24Z"/><path class="cls-42" d="M983,204.24c0,16.71-11.57,27.39-26.5,27.39-6.62,0-12.06-2.08-16-6.43V250H925.1V177.64h14.73v6.13c3.86-4.64,9.59-6.92,16.71-6.92C971.47,176.85,983,187.53,983,204.24Zm-15.62,0c0-9.19-5.84-14.73-13.55-14.73s-13.54,5.54-13.54,14.73S946.16,219,953.87,219,967.42,213.43,967.42,204.24Z"/><path class="cls-42" d="M988.16,225.89l5.15-11.07A36.42,36.42,0,0,0,1011.8,220c7.11,0,9.78-1.88,9.78-4.84,0-8.71-32.13.19-32.13-21.06,0-10.09,9.09-17.21,24.62-17.21,7.31,0,15.42,1.68,20.47,4.65l-5.15,11a30.6,30.6,0,0,0-15.32-3.95c-6.92,0-9.89,2.17-9.89,4.94,0,9.1,32.14.3,32.14,21.26,0,9.89-9.2,16.91-25.12,16.91C1002.2,231.63,993.11,229.15,988.16,225.89Z"/><path class="cls-42" d="M1043.52,222.63c0-5,4-8.8,9.49-8.8s9.49,3.76,9.49,8.8-4,9-9.49,9S1043.52,227.57,1043.52,222.63Zm.3-61h18.39l-3.07,45.18h-12.26Z"/><text class="cls-43" transform="translate(732.43 353.51)">404 Er<tspan class="cls-44" x="271.51" y="0">r</tspan><tspan x="305.49" y="0">or</tspan></text><g class="cls-45"><path class="cls-1" d="M1307.93,599.16a30.17,30.17,0,0,0-45.64-21,40.2,40.2,0,0,0-74.7,20.66v.42c-14.25,2.4-25.48,14.83-25.48,29.76,0,16.64,13.87,30.17,30.51,30.17h110.64c16.64,0,30.51-13.53,30.51-30.17C1333.77,613.92,1322.36,601.41,1307.93,599.16Z"/></g><g class="cls-45"><path class="cls-1" d="M981,915.57a36.58,36.58,0,0,0-55.33-25.48,48.72,48.72,0,0,0-90.55,25c0,.17,0,.34,0,.51-17.28,2.91-30.89,18-30.89,36.07,0,20.17,16.81,36.58,37,36.58H975.35c20.17,0,37-16.41,37-36.58C1012.33,933.46,998.5,918.3,981,915.57Z"/></g><g class="cls-45"><path class="cls-1" d="M239.21,475.32a36.58,36.58,0,0,0-55.33-25.47,48.72,48.72,0,0,0-90.55,25c0,.17,0,.34,0,.51-17.29,2.91-30.9,18-30.9,36.07,0,20.17,16.82,36.58,37,36.58H233.55c20.17,0,37-16.41,37-36.58C270.53,493.22,256.7,478.06,239.21,475.32Z"/></g></svg>
