<svg version="1.0" xmlns="http://www.w3.org/2000/svg" width="200.000000pt" height="100%" viewBox="0 0 200.000000 200.000000" preserveaspectratio="none">
  <g transform="translate(0.000000,200.000000) scale(0.100000,-0.100000)" fill="#000000" stroke="none">
    <path class="cloud-path" d="M893 1704 c-70 -14 -119 -35 -180 -76 -80 -54 -152 -144 -168 -211
-4 -15 -10 -25 -14 -22 -13 7 -114 -21 -160 -44 -25 -13 -67 -46 -95 -75 -239
-242 -158 -682 147 -798 64 -24 157 -26 230 -4 l57 17 0 49 0 49 -32 -19 c-18
-10 -57 -23 -86 -28 -199 -36 -375 144 -375 385 0 187 103 337 261 382 38 11
39 11 46 -69 2 -30 14 -77 25 -103 22 -52 78 -137 89 -137 4 0 22 9 39 20 l32
19 -28 31 c-55 61 -75 117 -76 210 0 73 4 93 28 141 40 83 149 176 226 195 9
2 34 8 56 13 89 22 220 -1 310 -54 67 -39 171 -165 147 -178 -4 -3 -34 -12
-67 -22 -67 -19 -162 -81 -199 -130 l-25 -32 29 -26 29 -26 23 27 c41 49 102
91 160 111 282 97 547 -217 437 -515 -67 -182 -219 -271 -407 -239 -36 6 -38
5 -36 -22 1 -15 3 -35 3 -43 1 -14 12 -17 106 -24 44 -3 138 20 195 49 103 52
202 182 230 304 13 56 16 164 6 216 -34 174 -190 336 -346 361 -38 6 -44 12
-61 48 -91 206 -322 318 -556 270z" />
    <path class="pill-path" d="M820 608 c-54 -32 -60 -92 -14 -138 24 -24 28 -25 185 -26 147 -1
162 0 191 20 56 37 57 107 1 143 -23 15 -51 18 -180 19 -132 1 -157 -2 -183
-18z m347 -16 c41 -22 42 -91 3 -112 -12 -6 -52 -13 -91 -14 -78 -4 -81 -2
-81 61 -1 83 -6 79 75 77 40 0 82 -6 94 -12z" />
  </g>
</svg>
