<svg xmlns="http://www.w3.org/2000/svg" version="1.0" preserveAspectRatio="xMidYMid meet" viewBox="164.52 431.91 704.48 195.96">
  <g transform="translate(0.000000,1024.000000) scale(0.100000,-0.100000)" fill="#000000" stroke="none">
    <path d="M2345 5904 c-453 -101 -741 -549 -695 -1081 16 -183 44 -283 119 -428 64 -125 199 -262 319 -324 165 -85 321 -118 511 -108 341 18 597 172 733 442 21 40 68 174 68 191 0 2 -88 4 -194 4 l-195 0 -30 -64 c-80 -167 -217 -246 -426 -246 -132 0 -206 24 -306 96 -102 74 -188 254 -189 397 l0 47 663 1 c364 1 670 1 679 0 25 -3 32 51 25 188 -15 316 -150 579 -382 747 -65 47 -194 109 -270 130 -87 24 -338 28 -430 8z m287 -315 c188 -39 339 -216 373 -436 l7 -43 -476 0 -476 0 0 33 c0 92 69 239 149 317 117 114 271 161 423 129z" />
    <path d="M4530 5901 c-157 -50 -307 -175 -373 -311 l-37 -75 0 178 0 177 -195 0 -195 0 2 -927 3 -928 207 -3 207 -2 3 527 c4 585 3 577 73 718 66 133 172 226 300 260 53 15 88 17 185 12 l120 -6 0 193 c0 168 -2 195 -16 200 -35 14 -229 5 -284 -13z" />
    <path d="M7504 5905 c-188 -29 -321 -91 -430 -200 -89 -87 -136 -180 -159 -309 -8 -49 -15 -90 -15 -92 0 -2 94 -4 209 -4 l208 0 7 41 c29 179 236 283 497 250 110 -14 183 -46 232 -101 72 -79 76 -200 8 -273 -51 -55 -113 -76 -301 -101 -410 -54 -539 -82 -653 -139 -183 -91 -267 -237 -268 -462 -1 -113 12 -175 51 -255 120 -239 449 -351 810 -275 149 31 283 89 366 157 l48 39 19 -52 c25 -67 81 -122 148 -145 72 -25 226 -26 332 -1 l77 18 0 145 0 144 -69 0 c-53 0 -74 4 -92 19 l-24 19 -6 574 c-6 631 -6 626 -70 733 -83 139 -240 230 -464 269 -108 19 -343 19 -461 1z m574 -1205 c-4 -181 -13 -206 -100 -284 -104 -94 -223 -132 -390 -124 -208 11 -327 88 -336 219 -6 80 13 140 61 195 77 87 176 119 504 159 110 14 201 38 243 65 20 12 23 -26 18 -230z" />
    <path d="M4867 5858 c6 -7 150 -205 322 -440 l311 -427 -328 -458 c-180 -252 -338 -473 -350 -490 l-23 -33 244 0 245 0 223 340 c123 187 226 340 229 340 3 0 109 -152 236 -338 l231 -337 247 -3 c135 -1 246 1 246 5 0 5 -158 229 -350 498 -192 270 -348 496 -345 503 3 7 142 200 310 428 168 227 305 416 305 419 0 3 -107 5 -237 5 l-238 -1 -199 -280 c-109 -154 -202 -277 -207 -272 -4 4 -91 130 -192 278 l-184 270 -253 3 c-203 2 -251 0 -243 -10z" />
  </g>
</svg>
