<svg xmlns="http://www.w3.org/2000/svg" fill="none" viewBox="0.5 0.25 27.32 16.76">
  <path d="M17.072 8.63226C17.072 13.2616 13.3622 17.0145 8.78601 17.0145C4.20977 17.0145 0.5 13.2616 0.5 8.63226C0.5 4.0029 4.20977 0.250061 8.78601 0.250061C13.3622 0.250061 17.072 4.0029 17.072 8.63226Z" fill="#ED0006"></path>
  <path d="M27.8215 8.63226C27.8215 13.2616 24.1118 17.0145 19.5355 17.0145C14.9593 17.0145 11.2495 13.2616 11.2495 8.63226C11.2495 4.0029 14.9593 0.250061 19.5355 0.250061C24.1118 0.250061 27.8215 4.0029 27.8215 8.63226Z" fill="#2F80ED"></path>
  <path fill-rule="evenodd" clip-rule="evenodd" d="M14.1608 2.2525C15.9423 3.78995 17.072 6.07765 17.072 8.63226C17.072 11.1869 15.9423 13.4746 14.1608 15.012C12.3792 13.4746 11.2495 11.1869 11.2495 8.63226C11.2495 6.07765 12.3792 3.78995 14.1608 2.2525Z" fill="#6C6BBD"></path>
</svg>
