<svg width="133" height="131" viewBox="0 0 133 131" fill="none" xmlns="http://www.w3.org/2000/svg">
<path d="M60.5539 19.857V31.2921L54.7402 43.7152L60.5539 54.1622C60.5539 56.2663 58.8213 57.9739 56.6867 57.9739H25.749C23.6143 57.9739 21.8818 56.2663 21.8818 54.1622V19.857C21.8818 17.753 23.6143 16.0453 25.749 16.0453H56.6867C58.8213 16.0453 60.5539 17.753 60.5539 19.857Z" fill="#FFECEF"/>
<path d="M60.5538 31.2921V54.1622C60.5538 56.2663 58.8213 57.9739 56.6866 57.9739H41.2178C39.0831 57.9739 37.3506 56.2663 37.3506 54.1622V35.1038C37.3506 32.9997 39.0831 31.2921 41.2178 31.2921H60.5538Z" fill="#FFB4C1"/>
<path d="M64.4213 4.61025V17.3159C64.4213 19.4199 62.6914 21.1276 60.5541 21.1276H21.4592C19.322 21.1276 17.592 19.4199 17.592 17.3159V4.61025C17.592 2.50619 19.322 0.798553 21.4592 0.798553H60.5541C62.6914 0.798553 64.4213 2.50619 64.4213 4.61025Z" fill="#FF7991"/>
<path d="M73.4509 14.3743H112.472V57.7889H73.4509V14.3743Z" fill="#FFDEE4"/>
<path d="M86.3355 31.2921C88.4713 31.2921 90.2027 29.5856 90.2027 27.4805C90.2027 25.3753 88.4713 23.6688 86.3355 23.6688C84.1997 23.6688 82.4683 25.3753 82.4683 27.4805C82.4683 29.5856 84.1997 31.2921 86.3355 31.2921Z" fill="#A73833"/>
<path d="M99.2256 31.2921C101.361 31.2921 103.093 29.5855 103.093 27.4804C103.093 25.3753 101.361 23.6687 99.2256 23.6687C97.0898 23.6687 95.3584 25.3753 95.3584 27.4804C95.3584 29.5855 97.0898 31.2921 99.2256 31.2921Z" fill="#A73833"/>
<path d="M99.2256 43.9977C101.361 43.9977 103.093 42.2912 103.093 40.1861C103.093 38.0809 101.361 36.3744 99.2256 36.3744C97.0898 36.3744 95.3584 38.0809 95.3584 40.1861C95.3584 42.2912 97.0898 43.9977 99.2256 43.9977Z" fill="#A73833"/>
<path d="M86.335 43.9977C88.4708 43.9977 90.2022 42.2912 90.2022 40.1861C90.2022 38.0809 88.4708 36.3744 86.335 36.3744C84.1992 36.3744 82.4678 38.0809 82.4678 40.1861C82.4678 42.2912 84.1992 43.9977 86.335 43.9977Z" fill="#A73833"/>
<path d="M77.3118 55.798V17.8599C77.3118 17.5598 77.5593 17.3159 77.8638 17.3159H107.698C108.002 17.3159 108.25 17.5598 108.25 17.8599V55.798H115.984V17.8599C115.984 13.3563 112.267 9.6925 107.697 9.6925H77.8638C73.2945 9.6925 69.5774 13.3563 69.5774 17.8599V55.798H77.3118Z" fill="url(#paint0_linear_337_52)"/>
<path d="M66.9994 51.0087L78.7325 90.1441L66.9994 130.904H20.8147C18.68 130.904 16.9475 129.197 16.9475 127.093V72.1789L66.9994 51.0087Z" fill="url(#paint1_linear_337_52)"/>
<path d="M117.051 70.8193V127.093C117.051 129.197 115.319 130.904 113.184 130.904H66.9993V51.0087L117.051 70.8193Z" fill="url(#paint2_linear_337_52)"/>
<path d="M66.9992 51.009L53.5927 71.6943C52.8821 72.7905 51.6534 73.454 50.3336 73.454L4.77646 73.4568C1.79743 73.4568 -0.00571954 70.2125 1.59814 67.7382L11.2984 52.7715C12.0089 51.6753 13.2376 51.0118 14.5574 51.0118L66.9992 51.009Z" fill="url(#paint3_linear_337_52)"/>
<path d="M66.9993 51.009L80.4058 71.6943C81.1164 72.7905 82.3451 73.454 83.6648 73.454L129.222 73.4568C132.201 73.4568 134.004 70.2125 132.4 67.7382L122.7 52.7715C121.99 51.6753 120.761 51.0118 119.441 51.0118L66.9993 51.009Z" fill="url(#paint4_linear_337_52)"/>
<path opacity="0.5" d="M107.494 101.681V116.928C107.494 119.032 105.762 120.74 103.627 120.74H80.4236C78.2889 120.74 76.5564 119.032 76.5564 116.928V101.681C76.5564 99.5773 78.2889 97.8696 80.4236 97.8696H103.627C105.762 97.8696 107.494 99.5773 107.494 101.681Z" fill="white"/>
<defs>
<linearGradient id="paint0_linear_337_52" x1="69.4537" y1="4.68937" x2="93.943" y2="71.288" gradientUnits="userSpaceOnUse">
<stop stop-color="white"/>
<stop offset="1" stop-color="#FFDEE4"/>
</linearGradient>
<linearGradient id="paint1_linear_337_52" x1="50.4998" y1="52.841" x2="60.8132" y2="157.618" gradientUnits="userSpaceOnUse">
<stop stop-color="white"/>
<stop offset="1" stop-color="#FF7991"/>
</linearGradient>
<linearGradient id="paint2_linear_337_52" x1="99.5876" y1="-11.3989" x2="135.558" y2="131.7" gradientUnits="userSpaceOnUse">
<stop stop-color="white"/>
<stop offset="1" stop-color="#FF7991"/>
</linearGradient>
<linearGradient id="paint3_linear_337_52" x1="0.999386" y1="45.9291" x2="3.46085" y2="69.0963" gradientUnits="userSpaceOnUse">
<stop stop-color="white"/>
<stop offset="1" stop-color="#FFDEE4"/>
</linearGradient>
<linearGradient id="paint4_linear_337_52" x1="80.6125" y1="51.2147" x2="78.4499" y2="65.4575" gradientUnits="userSpaceOnUse">
<stop stop-color="white"/>
<stop offset="1" stop-color="#FFDEE4"/>
</linearGradient>
</defs>
</svg>
