<svg id="Layer_1" data-name="Layer 1" xmlns="http://www.w3.org/2000/svg" xmlns:xlink="http://www.w3.org/1999/xlink" viewBox="0 0 500 500"><defs><style>.cls-1{font-size:49.86px;fill:#24b574;font-family:BrandonGrotesque-Thin, Brandon Grotesque;font-weight:200;}.cls-2{font-size:120.49px;font-family:AristotelicaDisplayTrial-Regula, Aristotelica Display Trial;letter-spacing:0.1em;}.cls-2,.cls-5{fill:#1a75b7;}.cls-3{letter-spacing:0.09em;}.cls-4{letter-spacing:0.1em;}.cls-6{fill:url(#linear-gradient);}.cls-7{fill:url(#linear-gradient-2);}</style><linearGradient id="linear-gradient" x1="4923.18" y1="247.03" x2="5052.9" y2="22.34" gradientTransform="matrix(-1, 0, 0, 1, 5210.33, 0)" gradientUnits="userSpaceOnUse"><stop offset="0" stop-color="#e6e6e5"/><stop offset="0.04" stop-color="#d0e0d8"/><stop offset="0.12" stop-color="#97d2b8"/><stop offset="0.23" stop-color="#3dbb84"/><stop offset="0.26" stop-color="#22b474"/><stop offset="0.34" stop-color="#20a485"/><stop offset="0.47" stop-color="#1d8f9b"/><stop offset="0.61" stop-color="#1b80ab"/><stop offset="0.77" stop-color="#1a78b4"/><stop offset="1" stop-color="#1a75b7"/></linearGradient><linearGradient id="linear-gradient-2" x1="4963.96" y1="290.87" x2="5000.25" y2="228.01" gradientTransform="matrix(-1, 0, 0, 1, 5210.33, 0)" gradientUnits="userSpaceOnUse"><stop offset="0" stop-color="#24b574"/><stop offset="0.06" stop-color="#23b079"/><stop offset="0.45" stop-color="#1e909b"/><stop offset="0.78" stop-color="#1b7cb0"/><stop offset="1" stop-color="#1a75b7"/></linearGradient></defs><title>erxa_one</title><text class="cls-1" transform="translate(2.29 473.5) scale(1.07 1)">a partnership in wellness</text><text class="cls-2" transform="translate(108.5 416.28)">er<tspan class="cls-3" x="130.67" y="0">x</tspan><tspan class="cls-4" x="204.11" y="0">a</tspan></text><path class="cls-5" d="M310.06,172.61c11.07-12.48,25.33-19.23,39.28-26.37,8.3-4.24,17-7.7,25.24-12.1,17.75-9.51,27.43-24.36,28.05-44.7.2-6.58,0-13.17-.05-19.75a3.49,3.49,0,0,0-.58-2.3c-.76-.69-1.6,0-2.14.72-12.23,16.73-30.56,24.09-48.7,31.77-3.82,1.62-7.59,3.39-11.27,5.31-17.53,9.14-27.18,23.63-28.79,43.31C310.46,156.34,309.51,164.2,310.06,172.61Z"/><path class="cls-5" d="M178.81,150.37c0-.43-.05-.86-.07-1.29a138,138,0,0,1-15.29-20.67,34.73,34.73,0,0,1-2.15-2.88C145,98.24,132.45,68.37,136.08,35.9c-8.26-4.74-14.5-8.11-22.32-13.59C107.67,18,101.92,13.44,97.15,7.45c2,15.21,2.89,30.44,6.51,45.42,2.2,9.08,3,18.53,5.7,27.58C120,116.16,145.18,137.47,178.81,150.37Z"/><path class="cls-6" d="M301,239s14.66-115.78-62.52-150.51c0,0-70.62-27-103.43-53.26,0,0-3.47,26.27,4.84,58a112.85,112.85,0,0,0,62.87,74.21C226.26,178.08,262.94,199.17,301,239Z"/><path class="cls-7" d="M274.11,210.68s-20.2,5.85-33.57,8.48c0,0-48.6,5.62-57.46,37.82,0,0-6.71,15.09-7.51,59.15,0,0,2.33-15.78,33.39-29.67a134.2,134.2,0,0,1,45.46-11c19.48-1.38,53.86-8.14,45.89-39.09Z"/></svg>