<svg id="Layer_1" data-name="Layer 1" xmlns="http://www.w3.org/2000/svg" xmlns:xlink="http://www.w3.org/1999/xlink" viewBox="0 0 500 500"><defs><style>.cls-1{fill:#1a75b7;}.cls-2{fill:url(#linear-gradient);}.cls-3{fill:url(#linear-gradient-2);}</style><linearGradient id="linear-gradient" x1="3882.5" y1="337.9" x2="4016.4" y2="105.97" gradientTransform="matrix(-1, 0, 0, 1, 4170.33, 0)" gradientUnits="userSpaceOnUse"><stop offset="0" stop-color="#e6e6e5"/><stop offset="0.04" stop-color="#d0e0d8"/><stop offset="0.12" stop-color="#97d2b8"/><stop offset="0.23" stop-color="#3dbb84"/><stop offset="0.26" stop-color="#22b474"/><stop offset="0.34" stop-color="#20a485"/><stop offset="0.47" stop-color="#1d8f9b"/><stop offset="0.61" stop-color="#1b80ab"/><stop offset="0.77" stop-color="#1a78b4"/><stop offset="1" stop-color="#1a75b7"/></linearGradient><linearGradient id="linear-gradient-2" x1="3924.59" y1="383.15" x2="3962.05" y2="318.28" gradientTransform="matrix(-1, 0, 0, 1, 4170.33, 0)" gradientUnits="userSpaceOnUse"><stop offset="0" stop-color="#24b574"/><stop offset="0.06" stop-color="#23b079"/><stop offset="0.45" stop-color="#1e909b"/><stop offset="0.78" stop-color="#1b7cb0"/><stop offset="1" stop-color="#1a75b7"/></linearGradient></defs><title>erxa_two</title><path class="cls-1" d="M311.48,261.09c11.42-12.89,26.14-19.85,40.54-27.22,8.58-4.39,17.57-8,26.05-12.5,18.33-9.81,28.32-25.14,29-46.13.21-6.79,0-13.6,0-20.39a3.6,3.6,0,0,0-.6-2.38c-.79-.71-1.65,0-2.21.75-12.62,17.27-31.54,24.87-50.27,32.79-3.94,1.67-7.83,3.5-11.63,5.48-18.09,9.44-28.06,24.39-29.72,44.71C311.89,244.29,310.91,252.4,311.48,261.09Z"/><path class="cls-1" d="M176,238.13c0-.44-.05-.88-.07-1.33a142.44,142.44,0,0,1-15.78-21.34,33.23,33.23,0,0,1-2.22-3c-16.85-28.17-29.79-59-26-92.52-8.53-4.89-15-8.37-23-14-6.28-4.41-12.22-9.15-17.15-15.33,2.11,15.69,3,31.41,6.73,46.88,2.27,9.37,3.09,19.12,5.88,28.46C115.34,202.82,141.29,224.82,176,238.13Z"/><path class="cls-2" d="M302.1,329.66s15.14-119.51-64.53-155.36c0,0-72.9-27.89-106.76-55,0,0-3.59,27.12,5,59.91a116.46,116.46,0,0,0,64.89,76.6C225,266.73,262.84,288.5,302.1,329.66Z"/><path class="cls-3" d="M274.37,300.38s-20.85,6-34.65,8.76c0,0-50.17,5.79-59.32,39,0,0-6.93,15.58-7.74,61.06,0,0,2.4-16.29,34.46-30.62A138.55,138.55,0,0,1,254,367.28c20.11-1.43,55.6-8.4,47.37-40.35Z"/></svg>